<svg xmlns="http://www.w3.org/2000/svg" viewBox="0 0 14 12"><defs><style>.cls-1{fill:#e81f76;}</style></defs><g id="Layer_2" data-name="Layer 2"><g id="Layer_1_copy" data-name="Layer 1 copy"><path class="cls-1" d="M11.62,0a.39.39,0,0,1,.27.11.37.37,0,0,1,0,.53L9.64,2.89a.37.37,0,0,1-.53-.53L11.36.11A.38.38,0,0,1,11.62,0Z"/><polygon class="cls-1" points="6.97 2.25 9.15 2.25 9.75 2.85 9.75 5.03 5.51 9.27 4.99 8.73 9 4.72 9 3.15 8.85 3 7.28 3 3.27 7.01 2.73 6.49 6.97 2.25"/><rect class="cls-1" x="3.56" y="4.62" width="0.75" height="6.89" transform="translate(-4.55 5.15) rotate(-45)"/><rect class="cls-1" x="0.09" y="9.28" width="4.51" height="0.75" transform="translate(-6.14 4.49) rotate(-45)"/><path class="cls-1" d="M.38,10.12a.38.38,0,0,1,.26.11l1.13,1.13a.39.39,0,0,1,0,.53.38.38,0,0,1-.54,0L.11,10.77a.38.38,0,0,1,0-.54A.39.39,0,0,1,.38,10.12Z"/><rect class="cls-1" x="5.25" y="4.78" width="0.75" height="3.18" transform="translate(-2.86 5.84) rotate(-45)"/><rect class="cls-1" x="8.06" y="3.89" width="0.75" height="1.59" transform="translate(-0.84 7.34) rotate(-45)"/><rect class="cls-1" x="6.94" y="5.02" width="0.75" height="1.59" transform="translate(-1.97 6.87) rotate(-45)"/><path class="cls-1" d="M11,12A3,3,0,0,1,8.88,6.88h0A3,3,0,1,1,11,12ZM9.41,7.41a2.25,2.25,0,0,0,0,3.18,2.25,2.25,0,1,0,0-3.18Z"/><rect class="cls-1" x="8.37" y="8.63" width="5.25" height="0.75" transform="translate(-3.14 10.41) rotate(-45)"/></g></g></svg>