<svg xmlns="http://www.w3.org/2000/svg" viewBox="0 0 50 50"><defs><style>.cls-1{fill:#fff;}</style></defs><g id="Layer_2" data-name="Layer 2"><g id="Layer_1_copy" data-name="Layer 1 copy"><path class="cls-1" d="M37.88,50a12.12,12.12,0,1,1,8.57-3.55A12,12,0,0,1,37.88,50Zm-6.77-4.15.73.53A10.43,10.43,0,0,0,46.38,31.84l-.53-.73Zm6.77-18.4a10.43,10.43,0,0,0-8.49,16.47l.53.74L44.66,29.91l-.74-.52A10.3,10.3,0,0,0,37.88,27.45Z"/><path class="cls-1" d="M0,50v-.84c0-4.63,5.3-6.82,10-8.75,4-1.65,7.75-3.2,7.75-5.75,0-1.17-.66-2.2-1.56-3.61a21.32,21.32,0,0,1-3-6.25L13,24.23h-.92c-2,0-3-3-3-5.87,0-2.21.66-3.87,1.81-4.54l.3-.18.07-.44a13.76,13.76,0,0,1,27.5,0v.36l.35.27a2.79,2.79,0,0,1,.93.88c1.06,1.58,1.07,4.59.47,6.68l-1.58-.64c.55-2,.38-4.86-.65-5.46l-.12-.07-1.15,0,0-1.13c0-.11,0-.22,0-.32a12.07,12.07,0,0,0-24.14,0c0,.09,0,.19,0,.28L13,15.17H12l-.21.08c-.54.26-.91,1.18-1,2.46a7.71,7.71,0,0,0,1,4.56l.2.24,2.48,0,.14.68a18.77,18.77,0,0,0,3,6.92c.94,1.47,1.82,2.85,1.82,4.52,0,3.67-4.46,5.52-8.78,7.3-3.46,1.44-7,2.92-8.38,5.2l-.67,1.15H24.23V50Z"/></g></g></svg>