<svg xmlns="http://www.w3.org/2000/svg" viewBox="0 0 12 12"><defs><style>.cls-1{fill:#e81f76;}</style></defs><g id="Layer_2" data-name="Layer 2"><g id="Layer_1_copy" data-name="Layer 1 copy"><path class="cls-1" d="M9,12A3,3,0,0,1,6.88,6.88h0A3,3,0,1,1,9,12ZM7.41,7.41a2.25,2.25,0,0,0,0,3.18,2.25,2.25,0,1,0,0-3.18Z"/><rect class="cls-1" x="6.37" y="8.63" width="5.25" height="0.75" transform="translate(-3.73 9) rotate(-45)"/><path class="cls-1" d="M6,12H0v-.38c0-1.19,1.29-1.73,2.43-2.2.83-.34,1.69-.7,1.69-1.17a1.62,1.62,0,0,0-.33-.75A4.88,4.88,0,0,1,3.08,6H3c-.58,0-.89-.78-.89-1.55a1.34,1.34,0,0,1,.51-1.21,3.38,3.38,0,0,1,6.76,0,.83.83,0,0,1,.27.26,2.3,2.3,0,0,1,.07,1.89L9,5.11A1.45,1.45,0,0,0,9,3.89H8.61l0-.45V3.38a2.63,2.63,0,0,0-5.26,0v.06l0,.45H3s-.11.12-.13.43a1.62,1.62,0,0,0,.18.93h.63l.06.3A4.25,4.25,0,0,0,4.42,7.1a2.1,2.1,0,0,1,.46,1.15c0,1-1.1,1.43-2.16,1.87A4,4,0,0,0,.86,11.25H6Z"/></g></g></svg>