<svg xmlns="http://www.w3.org/2000/svg" viewBox="0 0 48.84 50"><defs><style>.cls-1{fill:#fff;}</style></defs><g id="Layer_2" data-name="Layer 2"><g id="Layer_1_copy" data-name="Layer 1 copy"><path class="cls-1" d="M6,50a1,1,0,0,1-.71-.17L.4,46.32A1,1,0,0,1,.18,45a1,1,0,0,1,.62-.39,1,1,0,0,1,.72.17L3.18,46l8.2-11.44L2,27.76,3.08,26.2l4.54,3.25L20.69,11.21l7.76-1.28.36.26,7-9.79A.94.94,0,0,1,36.44,0a1,1,0,0,1,.72.17.94.94,0,0,1,.39.63,1,1,0,0,1-.17.71l-7,9.79.36.25L32,19.32,18.94,37.56l4.54,3.25-1.12,1.57-9.42-6.75L4.74,47.07,6.4,48.26a1,1,0,0,1,.22,1.34A.94.94,0,0,1,6,50ZM9.18,30.57l8.19,5.87,4.13-5.75-8.19-5.87Zm5.25-7.32,8.19,5.87L25,25.81l-3.73-2.67,1.12-1.56,3.73,2.67,2.38-3.32-3.73-2.67,1.12-1.56,4.25,3L29,12.66,28,12l-6.19,1Z"/><path class="cls-1" d="M38,47.52a10.86,10.86,0,1,1,7.68-3.18A10.79,10.79,0,0,1,38,47.52Zm-5.61-3.89.44.31A8.93,8.93,0,0,0,45.26,31.48L45,31.05ZM38,27.72A8.93,8.93,0,0,0,30.7,41.83l.31.44L43.59,29.69l-.43-.31A8.83,8.83,0,0,0,38,27.72Z"/></g></g></svg>