<svg xmlns="http://www.w3.org/2000/svg" viewBox="0 0 19 17"><defs><style>.cls-1{fill:#1d4189;}</style></defs><g id="Layer_2" data-name="Layer 2"><g id="Layer_1_copy" data-name="Layer 1 copy"><polygon class="cls-1" points="19 14.88 15.28 14.88 15.28 13.81 17.94 13.81 17.94 4.25 15.41 4.25 13.28 5.31 5.72 5.31 3.59 4.25 1.06 4.25 1.06 13.81 3.72 13.81 3.72 14.88 0 14.88 0 3.19 3.84 3.19 5.97 4.25 13.03 4.25 15.16 3.19 19 3.19 19 14.88"/><path class="cls-1" d="M15.81,17H3.19V9.56H15.81ZM4.25,15.94h10.5V10.62H4.25Z"/><rect class="cls-1" x="6.38" y="13.81" width="6.25" height="1.06"/><rect class="cls-1" x="6.38" y="11.69" width="6.25" height="1.06"/><circle class="cls-1" cx="3.72" cy="7.97" r="0.53"/><polygon class="cls-1" points="15.81 3.72 14.75 3.72 14.75 1.06 4.25 1.06 4.25 3.72 3.19 3.72 3.19 0 15.81 0 15.81 3.72"/></g></g></svg>