<svg xmlns="http://www.w3.org/2000/svg" viewBox="0 0 13 13"><defs><style>.cls-1{fill:none;stroke:#f88d2a;stroke-linecap:round;stroke-linejoin:round;}</style></defs><g id="Layer_2" data-name="Layer 2"><g id="Layer_1_copy" data-name="Layer 1 copy"><g id="timer"><circle class="cls-1" cx="6.5" cy="6.5" r="0.58"/><line class="cls-1" x1="6.5" y1="2.63" x2="6.5" y2="5.92"/><line class="cls-1" x1="9.4" y1="6.5" x2="7.08" y2="6.5"/><polyline class="cls-1" points="12.11 2.05 12.11 3.98 10.18 3.98"/><path class="cls-1" d="M9.21,11.85a5.89,5.89,0,0,1-2.71.65,6,6,0,1,1,5.35-8.71"/><path class="cls-1" d="M11.24,10.18a5.86,5.86,0,0,1-.72.77"/><path class="cls-1" d="M12.31,8a7.58,7.58,0,0,1-.28.8"/><path class="cls-1" d="M12.42,5.53a6.24,6.24,0,0,1,.08,1"/></g></g></g></svg>