<svg xmlns="http://www.w3.org/2000/svg" viewBox="0 0 27.5 16.5"><defs><style>.cls-1{fill:#1a428a;}</style></defs><g id="Layer_2" data-name="Layer 2"><g id="Layer_1_copy" data-name="Layer 1 copy"><path class="cls-1" d="M13.75,0C8.72,0,4.81,3.15,0,8.25c4.14,4.36,7.61,8.25,13.75,8.25S24.4,11.57,27.5,8.34C24.32,4.55,19.81,0,13.75,0Zm0,15.58C8.3,15.58,5,12.2,1.26,8.25,5.73,3.59,9.28.92,13.75.92c5.3,0,9.44,3.82,12.52,7.38C23.24,11.46,19.14,15.58,13.75,15.58Z"/><path class="cls-1" d="M13.75,2.75a5.5,5.5,0,1,0,5.5,5.5A5.51,5.51,0,0,0,13.75,2.75Zm0,10.08a4.58,4.58,0,1,1,4.58-4.58A4.58,4.58,0,0,1,13.75,12.83Z"/><path class="cls-1" d="M13.75,5A3.21,3.21,0,1,0,17,8.25,3.21,3.21,0,0,0,13.75,5Zm0,5.5A2.29,2.29,0,1,1,16,8.25,2.3,2.3,0,0,1,13.75,10.54Z"/></g></g></svg>