<svg xmlns="http://www.w3.org/2000/svg" viewBox="0 0 64.71 42.04"><defs><style>.cls-1{fill:#fff;}.cls-2{fill:none;stroke:#fff;stroke-linecap:round;stroke-linejoin:round;stroke-width:1.62px;}</style></defs><g id="Layer_2" data-name="Layer 2"><g id="Layer_1_copy" data-name="Layer 1 copy"><path class="cls-1" d="M54.77,27.9a1.67,1.67,0,0,1-1.27-.5A1.85,1.85,0,0,1,53,26.06a2.05,2.05,0,0,1,.51-1.47,1.82,1.82,0,0,1,1.37-.54,1.68,1.68,0,0,1,1.29.49,2,2,0,0,1,.46,1.38,2,2,0,0,1-.51,1.45A1.79,1.79,0,0,1,54.77,27.9Zm5.41-3.75-4.82,7.4H54.1l4.81-7.4ZM54.87,25q-.75,0-.75,1.05t.72,1c.48,0,.73-.35.73-1S55.34,25,54.87,25Zm4.51,6.69a1.67,1.67,0,0,1-1.27-.5,1.85,1.85,0,0,1-.48-1.34,2.05,2.05,0,0,1,.51-1.47,1.8,1.8,0,0,1,1.37-.54,1.64,1.64,0,0,1,1.28.49,1.89,1.89,0,0,1,.46,1.37,2,2,0,0,1-.51,1.45A1.78,1.78,0,0,1,59.38,31.65Zm.08-2.94c-.5,0-.74.35-.74,1.05s.24,1,.72,1,.74-.35.74-1A1.23,1.23,0,0,0,60,29,.62.62,0,0,0,59.46,28.71Z"/><path class="cls-1" d="M0,42v-.89C0,34,6.05,31.82,10.46,30.25c3-1.08,4-1.57,4.24-2.22l.06-.15v-.16A1.79,1.79,0,0,0,13,25.94H6.26l.52-1.24c.35-.85.7-1.64,1-2.41,1.69-3.84,2.92-6.61,2.92-12A10.28,10.28,0,0,1,31,8l.26,1.12,1-.65A9.84,9.84,0,0,1,47.63,15.9l0,.36.29.22a3.92,3.92,0,0,1,1.21,3.29c0,2.09-.78,4.27-2.29,4.38l-.54,0-.15.52a15.79,15.79,0,0,1-2,4,4.67,4.67,0,0,0-1,2.35c0,1.45,2.05,2.4,5.17,3.69,3.35,1.39,7.13,2.95,7.13,6.37V42ZM32.51,27.13c.11.2.23.38.35.57a7,7,0,0,1,1.34,3.07l0,.47.44.19c4.36,1.83,6.73,4.5,7.25,8.15l.1.68H54.09L52.4,38.87a20.08,20.08,0,0,0-4.71-2.42c-3.26-1.35-6.31-2.61-6.31-5.36a6,6,0,0,1,1.31-3.3,13.11,13.11,0,0,0,2.06-4.71l.14-.71h1.89l.21-.46a5.79,5.79,0,0,0,.19-3.55l-.2-.5H45.81l0-1.12a8.22,8.22,0,0,0-2.38-5.89,8,8,0,0,0-11.91.62l-.2.23,0,.31a27.3,27.3,0,0,0,2.88,10.37c.32.74.65,1.51,1,2.32l.52,1.24h-4ZM21,1.78a8.51,8.51,0,0,0-8.5,8.51c0,5.76-1.42,9-3.07,12.72L9,24.11l1.18,0H13a3.58,3.58,0,0,1,3.57,3.58c0,2.1-2.07,3-5.48,4.2C6.6,33.52,2.83,35.17,2,39.31l-.2.95h38.5l-.2-.95c-.77-3.72-3.91-5.41-7.19-6.68L31,31.94c-3.43-1.22-5.5-2.11-5.5-4.21a3.58,3.58,0,0,1,3.57-3.58h4l-.48-1.1c-1.54-3.5-2.86-6.53-3.05-11.59v-.35c0-.28,0-.54,0-.82A8.51,8.51,0,0,0,21,1.78Zm8.05,24.16a1.79,1.79,0,0,0-1.79,1.79v.16l.06.15c.21.49.77.93,3.09,1.8l2.19.82-1.25-2a18.92,18.92,0,0,1-1.29-2.29l-.21-.45Z"/><circle class="cls-2" cx="56.92" cy="27.81" r="6.98"/></g></g></svg>