<svg xmlns="http://www.w3.org/2000/svg" viewBox="0 0 55.46 42.04"><defs><style>.cls-1{fill:#fff;}</style></defs><g id="Layer_2" data-name="Layer 2"><g id="Layer_1_copy" data-name="Layer 1 copy"><path class="cls-1" d="M0,42v-.89c0-4,4.28-5.76,8.43-7.47,3.26-1.35,6.33-2.62,6.33-4.61,0-.88-.46-1.64-1.27-2.91a18.06,18.06,0,0,1-2.42-5l-.17-.57h-.59c-1.81,0-2.75-2.55-2.75-5.08,0-1.86.52-3.23,1.48-3.87l.32-.22,0-.39A11.66,11.66,0,0,1,32,7.69l.33.93.83-.53a8.6,8.6,0,0,1,4.65-1.38,8.73,8.73,0,0,1,8.72,8.72c0,4.46,1,6.76,2.42,9.94.28.64.57,1.31.87,2l.52,1.23H44.5A1.35,1.35,0,0,0,43.16,30v.31l.21.22c.29.31,1,.6,3.27,1.43,3.73,1.32,8.82,3.14,8.82,9.22V42Zm31-20.9a17.21,17.21,0,0,1-2.07,4.5l-.75,1.2h2.94A3.13,3.13,0,0,1,34.21,30,2.45,2.45,0,0,1,33,32.09l-1.17.82,1.84.76c3.42,1.42,7.3,3,8.21,6l.17.56H53.71l-.27-1c-.85-3.1-3.85-4.4-7.4-5.66-2.82-1-4.66-1.8-4.66-3.64a3.13,3.13,0,0,1,3.12-3.13h3.12l-.48-1.1a22.38,22.38,0,0,1-2.41-10.31,7,7,0,0,0-6.94-6.94,6.83,6.83,0,0,0-4.8,2l-.67.65.75.55c.65.46,1.41,1.5,1.41,3.81,0,2.53-.93,5.08-2.72,5.08h-.59ZM12.5,19.5A15.36,15.36,0,0,0,15,25.2a7.2,7.2,0,0,1,1.54,3.87c0,3.19-3.61,4.68-7.43,6.26C6.59,36.37,4,37.45,2.67,39l-1.12,1.3H40.49L39.36,39c-1.3-1.52-3.91-2.59-6.43-3.64-1.06-.44-2.24-.93-3.29-1.45l-1.38-.76c-1.4-.88-2.76-2.12-2.76-4a4.63,4.63,0,0,1,.35-1.66,12.86,12.86,0,0,1,1.2-2.19,15.56,15.56,0,0,0,2.49-5.72l.15-.71h2.15l.23-.36c.69-1.07.91-4,.19-5.07L32,13H30.82l.07-1.35c0-.38,0-.71-.05-1a9.87,9.87,0,0,0-19.69,1L11.22,13H10l-.23.34c-.72,1.05-.5,4,.19,5.07l.23.36h2.16ZM27.37,29.64a3.77,3.77,0,0,0,1.75,1.89l.33.22.37-.14c1.77-.66,2.28-1,2.51-1.34l.2-.29-.08-.35a1.45,1.45,0,0,0-1.36-1h-4Z"/></g></g></svg>