<svg xmlns="http://www.w3.org/2000/svg" viewBox="0 0 14.63 18"><defs><style>.cls-1{fill:#e81f76;}</style></defs><g id="Layer_2" data-name="Layer 2"><g id="Layer_1_copy" data-name="Layer 1 copy"><rect class="cls-1" y="2.25" width="14.63" height="1.13"/><path class="cls-1" d="M10.12,2.81H9V1.69a.57.57,0,0,0-.56-.57H6.19a.58.58,0,0,0-.57.57V2.81H4.5V1.69A1.69,1.69,0,0,1,6.19,0H8.44a1.69,1.69,0,0,1,1.68,1.69Z"/><rect class="cls-1" x="1.13" y="4.5" width="1.13" height="11.25"/><rect class="cls-1" x="12.38" y="4.5" width="1.13" height="11.25"/><path class="cls-1" d="M3.38,18a2.26,2.26,0,0,1-2.26-2.25H2.25a1.13,1.13,0,0,0,1.13,1.13Z"/><path class="cls-1" d="M11.25,18V16.88a1.14,1.14,0,0,0,1.13-1.13H13.5A2.25,2.25,0,0,1,11.25,18Z"/><rect class="cls-1" x="3.38" y="16.88" width="7.88" height="1.13"/><rect class="cls-1" x="3.94" y="4.5" width="1.13" height="10.69"/><rect class="cls-1" x="6.75" y="4.5" width="1.13" height="10.69"/><rect class="cls-1" x="9.56" y="4.5" width="1.13" height="10.69"/></g></g></svg>