<svg xmlns="http://www.w3.org/2000/svg" viewBox="0 0 21 18"><defs><style>.cls-1{fill:#1d4189;}</style></defs><g id="Layer_2" data-name="Layer 2"><g id="Layer_1_copy" data-name="Layer 1 copy"><path class="cls-1" d="M17.44,0a.57.57,0,0,1,.4.16.59.59,0,0,1,0,.8L14.46,4.34a.57.57,0,0,1-.8-.8L17,.16A.55.55,0,0,1,17.44,0Z"/><polygon class="cls-1" points="10.46 3.38 13.73 3.38 14.63 4.27 14.63 7.54 8.27 13.9 7.48 13.1 13.5 7.08 13.5 4.73 13.27 4.5 10.92 4.5 4.9 10.52 4.1 9.73 10.46 3.38"/><rect class="cls-1" x="5.34" y="6.92" width="1.12" height="10.34" transform="translate(-6.82 7.72) rotate(-45)"/><rect class="cls-1" x="0.13" y="13.92" width="6.76" height="1.12" transform="translate(-9.21 6.73) rotate(-45)"/><path class="cls-1" d="M.56,15.19a.55.55,0,0,1,.4.16L2.65,17a.57.57,0,0,1,0,.8.59.59,0,0,1-.8,0L.16,16.15a.59.59,0,0,1,0-.8A.57.57,0,0,1,.56,15.19Z"/><rect class="cls-1" x="7.88" y="7.18" width="1.12" height="4.77" transform="translate(-4.29 8.77) rotate(-45)"/><rect class="cls-1" x="12.09" y="5.84" width="1.12" height="2.39" transform="translate(-1.26 11.01) rotate(-45)"/><rect class="cls-1" x="10.41" y="7.53" width="1.12" height="2.39" transform="translate(-2.95 10.31) rotate(-45)"/><path class="cls-1" d="M19.68,10.32A4.5,4.5,0,0,1,16.5,18h0a4.5,4.5,0,1,1,3.18-7.68ZM16.5,16.88a3.4,3.4,0,0,0,3.38-3.38,3.44,3.44,0,0,0-1-2.39,3.38,3.38,0,0,0-4.78,4.78,3.44,3.44,0,0,0,2.39,1Z"/><rect class="cls-1" x="14.5" y="12.94" width="4" height="1.12"/><rect class="cls-1" x="15.94" y="11.5" width="1.12" height="4"/></g></g></svg>