<svg xmlns="http://www.w3.org/2000/svg" viewBox="0 0 252.14 36"><defs><style>.cls-1{fill:#f88d2a;}.cls-2{fill:#1a428a;}.cls-3{fill:#4197cb;}</style></defs><g id="Layer_2" data-name="Layer 2"><g id="Layer_1_copy" data-name="Layer 1 copy"><polygon class="cls-1" points="5.78 0.33 5.83 5.92 5.79 5.92 2.36 0.33 0 0.33 0 8.89 2.01 8.89 1.96 3.29 2 3.29 5.44 8.89 7.79 8.89 7.79 0.33 5.78 0.33"/><polygon class="cls-1" points="13.42 5.26 13.42 8.89 11.35 8.89 11.35 5.26 8.13 0.33 10.63 0.33 12.46 3.5 14.29 0.33 16.71 0.33 13.42 5.26"/><path class="cls-1" d="M22.31,8.74a4.51,4.51,0,0,1-1.92.38,5.19,5.19,0,0,1-1.84-.32,4.3,4.3,0,0,1-1.45-.93,4.17,4.17,0,0,1-1-1.43,4.61,4.61,0,0,1-.35-1.84,4.87,4.87,0,0,1,.35-1.87,4.22,4.22,0,0,1,1-1.42,4.41,4.41,0,0,1,1.47-.9A5.25,5.25,0,0,1,20.42.1a5,5,0,0,1,1.79.32,3.31,3.31,0,0,1,1.42.94l-1.41,1.4a1.59,1.59,0,0,0-.76-.59,2.5,2.5,0,0,0-2,0,2.2,2.2,0,0,0-.78.55,2.51,2.51,0,0,0-.51.83,3,3,0,0,0-.18,1,3,3,0,0,0,.18,1.06,2.56,2.56,0,0,0,.5.83,2.23,2.23,0,0,0,.77.54,2.41,2.41,0,0,0,1,.19A2.32,2.32,0,0,0,21.54,7a2,2,0,0,0,.73-.63l1.44,1.36a4,4,0,0,1-1.4,1"/><polygon class="cls-2" points="5.41 19.78 5.41 16.2 2.07 16.2 2.07 19.78 0 19.78 0 11.22 2.07 11.22 2.07 14.46 5.41 14.46 5.41 11.22 7.48 11.22 7.48 19.78 5.41 19.78"/><polygon class="cls-2" points="8.73 19.78 8.73 11.22 14.49 11.22 14.49 12.96 10.72 12.96 10.72 14.58 14.28 14.58 14.28 16.24 10.72 16.24 10.72 18.02 14.71 18.02 14.71 19.78 8.73 19.78"/><path class="cls-2" d="M22,19.78l-.67-1.68H18l-.63,1.68H15.14l3.59-8.56h2l3.56,8.56ZM19.7,13.5l-1.09,2.94h2.16Z"/><polygon class="cls-2" points="24.71 19.78 24.71 11.22 26.79 11.22 26.79 17.98 30.11 17.98 30.11 19.78 24.71 19.78"/><polygon class="cls-2" points="33.74 12.98 33.74 19.78 31.67 19.78 31.67 12.98 29.25 12.98 29.25 11.21 36.16 11.21 36.16 12.98 33.74 12.98"/><polygon class="cls-2" points="42.46 19.78 42.46 16.2 39.12 16.2 39.12 19.78 37.05 19.78 37.05 11.22 39.12 11.22 39.12 14.46 42.46 14.46 42.46 11.22 44.53 11.22 44.53 19.78 42.46 19.78"/><polygon class="cls-2" points="5.41 30.67 5.41 27.09 2.07 27.09 2.07 30.67 0 30.67 0 22.1 2.07 22.1 2.07 25.35 5.41 25.35 5.41 22.1 7.48 22.1 7.48 30.67 5.41 30.67"/><path class="cls-2" d="M17.62,26.35a4.85,4.85,0,0,1-.35,1.86,4.28,4.28,0,0,1-1,1.44,4.16,4.16,0,0,1-1.48.92,5.41,5.41,0,0,1-3.72,0,4.15,4.15,0,0,1-2.45-2.36,5.12,5.12,0,0,1,0-3.72,4.13,4.13,0,0,1,1-1.41,4.5,4.5,0,0,1,1.48-.89,5.57,5.57,0,0,1,3.72,0,4.4,4.4,0,0,1,1.48.89,4.15,4.15,0,0,1,1,1.41,4.85,4.85,0,0,1,.35,1.86m-2.22,0a3,3,0,0,0-.18-1,2.56,2.56,0,0,0-.5-.83,2.27,2.27,0,0,0-.78-.54,2.58,2.58,0,0,0-2,0,2.44,2.44,0,0,0-.77.54,2.25,2.25,0,0,0-.5.83,3,3,0,0,0-.18,1,3,3,0,0,0,.18,1.07,2.5,2.5,0,0,0,.5.84,2.49,2.49,0,0,0,2.76.55,2.22,2.22,0,0,0,.77-.55,2.37,2.37,0,0,0,.51-.84,3,3,0,0,0,.18-1.07"/><path class="cls-2" d="M23,24.33a1.85,1.85,0,0,0-.69-.54,2.05,2.05,0,0,0-.83-.2,2,2,0,0,0-.42,0,1,1,0,0,0-.38.14,1,1,0,0,0-.29.26.77.77,0,0,0-.11.42.7.7,0,0,0,.09.37.82.82,0,0,0,.27.25,2.24,2.24,0,0,0,.41.2l.55.19c.29.09.59.2.91.32a3.17,3.17,0,0,1,.85.46A2.63,2.63,0,0,1,24,27,2.2,2.2,0,0,1,24.21,28a2.84,2.84,0,0,1-.27,1.28,2.55,2.55,0,0,1-.73.89,3.18,3.18,0,0,1-1.06.52,4.49,4.49,0,0,1-1.22.17,5.14,5.14,0,0,1-1.78-.32,3.84,3.84,0,0,1-1.43-.92l1.36-1.38a2.48,2.48,0,0,0,.83.65,2.15,2.15,0,0,0,1,.26,1.73,1.73,0,0,0,.45-.05,1.16,1.16,0,0,0,.38-.15.8.8,0,0,0,.26-.29,1,1,0,0,0,.1-.44.69.69,0,0,0-.12-.41,1.34,1.34,0,0,0-.35-.31,2.46,2.46,0,0,0-.56-.25L20.34,27a8,8,0,0,1-.81-.32,2.74,2.74,0,0,1-.7-.46,2.16,2.16,0,0,1-.49-.69,2.27,2.27,0,0,1-.19-1,2.47,2.47,0,0,1,.29-1.22,2.43,2.43,0,0,1,.76-.83A3.29,3.29,0,0,1,20.26,22a4.93,4.93,0,0,1,1.2-.15,4.68,4.68,0,0,1,1.49.26,3.84,3.84,0,0,1,1.32.79Z"/><path class="cls-2" d="M31.76,24.74A2.62,2.62,0,0,1,31.48,26a2.2,2.2,0,0,1-.75.82,3.15,3.15,0,0,1-1.09.46,5.4,5.4,0,0,1-1.28.15h-1v3.23H25.26V22.1h3.15a6,6,0,0,1,1.31.14,3.45,3.45,0,0,1,1.07.45,2.22,2.22,0,0,1,.71.81,2.74,2.74,0,0,1,.26,1.24m-2.07,0a.91.91,0,0,0-.12-.49.8.8,0,0,0-.33-.3,1.14,1.14,0,0,0-.46-.15,4.9,4.9,0,0,0-.54,0h-.91v2h.87a3.33,3.33,0,0,0,.56-.05,1.7,1.7,0,0,0,.48-.17.92.92,0,0,0,.33-.32,1,1,0,0,0,.12-.51"/><rect class="cls-2" x="32.57" y="22.1" width="2.08" height="8.57"/><polygon class="cls-2" points="39.94 23.87 39.94 30.67 37.87 30.67 37.87 23.87 35.45 23.87 35.45 22.1 42.36 22.1 42.36 23.87 39.94 23.87"/><path class="cls-2" d="M48.06,30.67,47.39,29H44.08l-.63,1.68H41.2l3.59-8.57h2l3.56,8.57Zm-2.3-6.28-1.09,2.94h2.15Z"/><polygon class="cls-2" points="50.93 30.67 50.93 22.1 53.01 22.1 53.01 28.87 56.33 28.87 56.33 30.67 50.93 30.67"/><path class="cls-2" d="M61.76,24.33a1.81,1.81,0,0,0-.7-.54,1.91,1.91,0,0,0-1.24-.16,1.06,1.06,0,0,0-.67.4.83.83,0,0,0,0,.79.89.89,0,0,0,.26.25,2.75,2.75,0,0,0,.42.2l.54.19c.29.09.6.2.91.32a3.23,3.23,0,0,1,.86.46,2.59,2.59,0,0,1,.64.72A2.09,2.09,0,0,1,63,28a2.72,2.72,0,0,1-.28,1.28,2.45,2.45,0,0,1-.73.89,3.13,3.13,0,0,1-1,.52,4.55,4.55,0,0,1-1.22.17A5.1,5.1,0,0,1,58,30.57a3.84,3.84,0,0,1-1.43-.92l1.36-1.38a2.38,2.38,0,0,0,.83.65,2.15,2.15,0,0,0,1,.26,1.73,1.73,0,0,0,.45-.05,1.16,1.16,0,0,0,.38-.15,1,1,0,0,0,.26-.29,1,1,0,0,0,.09-.44.69.69,0,0,0-.12-.41,1.15,1.15,0,0,0-.34-.31,2.68,2.68,0,0,0-.56-.25L59.14,27a7.85,7.85,0,0,1-.8-.32,2.57,2.57,0,0,1-.7-.46,2.19,2.19,0,0,1-.5-.69,2.43,2.43,0,0,1-.19-1,2.37,2.37,0,0,1,.3-1.22,2.33,2.33,0,0,1,.76-.83A3.2,3.2,0,0,1,59.07,22a4.93,4.93,0,0,1,1.2-.15,4.62,4.62,0,0,1,1.48.26,3.79,3.79,0,0,1,1.33.79Z"/><polygon class="cls-3" points="55.21 14.46 51.97 14.46 51.97 11.21 49.88 11.21 49.88 14.46 46.64 14.46 46.64 16.54 49.88 16.54 49.88 19.78 51.97 19.78 51.97 16.54 55.21 16.54 55.21 14.46"/><rect class="cls-2" x="75.57" y="0.33" width="0.69" height="35.67"/><path class="cls-3" d="M91.18,13.35H89.36V.33h8.12v1.6h-6.3V6h5.9V7.54h-5.9Z"/><path class="cls-3" d="M101.62,11.73h5.81v1.62H99.8V.33h1.82Z"/><path class="cls-3" d="M114.16,13.68a5.36,5.36,0,0,1-2.24-.43,4.46,4.46,0,0,1-1.58-1.15,4.64,4.64,0,0,1-.93-1.65,5.94,5.94,0,0,1-.31-1.92V.33h1.82V8.42a5.43,5.43,0,0,0,.17,1.32,3.34,3.34,0,0,0,.54,1.16,2.64,2.64,0,0,0,1,.83,3.34,3.34,0,0,0,1.53.31,3.39,3.39,0,0,0,1.53-.31,2.72,2.72,0,0,0,1-.83,3.34,3.34,0,0,0,.54-1.16,5.43,5.43,0,0,0,.17-1.32V.33h1.82v8.2a5.94,5.94,0,0,1-.31,1.92A4.78,4.78,0,0,1,118,12.1a4.59,4.59,0,0,1-1.59,1.15A5.33,5.33,0,0,1,114.16,13.68Z"/><path class="cls-3" d="M131.21,11h0L135.18.33h2l-5.12,13h-1.69l-5.07-13h2Z"/><path class="cls-3" d="M139.22,13.35h-2l5.65-13h1.65l5.59,13H148l-1.32-3.2h-6.18Zm1.95-4.8h4.88l-2.43-6.1Z"/><path class="cls-3" d="M162.93,11.33a6,6,0,0,1-2,1.7,6.31,6.31,0,0,1-3,.65,7.27,7.27,0,0,1-2.75-.51A6.27,6.27,0,0,1,153,11.76a6.44,6.44,0,0,1-1.42-2.17,7.12,7.12,0,0,1-.52-2.77A7.14,7.14,0,0,1,151.63,4a6.37,6.37,0,0,1,1.45-2.16A6.63,6.63,0,0,1,155.28.5,7.47,7.47,0,0,1,158,0a6.93,6.93,0,0,1,1.35.13,6.28,6.28,0,0,1,1.3.38,5.7,5.7,0,0,1,1.14.64,3.83,3.83,0,0,1,.88.87l-1.43,1.11A3.55,3.55,0,0,0,159.92,2,4.16,4.16,0,0,0,158,1.6,5,5,0,0,0,156,2a4.88,4.88,0,0,0-1.55,1.13,5.1,5.1,0,0,0-1,1.67,5.59,5.59,0,0,0-.35,2,6,6,0,0,0,.34,2.06,5,5,0,0,0,1,1.67A4.58,4.58,0,0,0,156,11.66a4.9,4.9,0,0,0,2,.4,4.41,4.41,0,0,0,2-.44,3.77,3.77,0,0,0,1.49-1.29Z"/><path class="cls-3" d="M175.94,11.33a5.83,5.83,0,0,1-2,1.7,6.31,6.31,0,0,1-3,.65,7.27,7.27,0,0,1-2.75-.51,6.27,6.27,0,0,1-2.17-1.41,6.44,6.44,0,0,1-1.42-2.17,7.12,7.12,0,0,1-.52-2.77A7.32,7.32,0,0,1,164.64,4a6.39,6.39,0,0,1,1.46-2.16A6.68,6.68,0,0,1,168.29.5a7.56,7.56,0,0,1,2.76-.5,7,7,0,0,1,1.35.13,6.47,6.47,0,0,1,1.3.38,5.7,5.7,0,0,1,1.14.64,4,4,0,0,1,.88.87l-1.43,1.11A3.55,3.55,0,0,0,172.94,2a4.16,4.16,0,0,0-1.89-.43A5,5,0,0,0,169,2a4.88,4.88,0,0,0-1.55,1.13,5.1,5.1,0,0,0-1,1.67,5.59,5.59,0,0,0-.35,2,6,6,0,0,0,.34,2.06,5,5,0,0,0,1,1.67A4.48,4.48,0,0,0,169,11.66a4.9,4.9,0,0,0,2,.4,4.41,4.41,0,0,0,2-.44,3.77,3.77,0,0,0,1.49-1.29Z"/><path class="cls-3" d="M179.62,13.35H177.8V.33h1.82Z"/><path class="cls-3" d="M192,10.74h0V.33h1.82v13h-2.3L184.64,2.72h0V13.35h-1.82V.33h2.38Z"/><path class="cls-3" d="M197.51,13.35h-2l5.64-13h1.66l5.59,13h-2.06L205,10.15h-6.18Zm2-4.8h4.87l-2.42-6.1Z"/><path class="cls-3" d="M214.61,13.35h-1.82V1.93h-4.17V.33h10.17v1.6h-4.18Z"/><path class="cls-3" d="M222.34,13.35h-1.82V.33h1.82Z"/><path class="cls-3" d="M238.63,6.82a7.12,7.12,0,0,1-.53,2.77,6.64,6.64,0,0,1-1.44,2.17,6.26,6.26,0,0,1-2.19,1.41,7.29,7.29,0,0,1-2.76.51,7.22,7.22,0,0,1-2.74-.51,6.31,6.31,0,0,1-2.18-1.41,6.49,6.49,0,0,1-1.44-2.17,7.3,7.3,0,0,1-.51-2.77A7.32,7.32,0,0,1,225.35,4a6.34,6.34,0,0,1,1.44-2.16A6.54,6.54,0,0,1,229,.5a7.81,7.81,0,0,1,5.5,0,6.48,6.48,0,0,1,2.19,1.38A6.49,6.49,0,0,1,238.1,4,7.14,7.14,0,0,1,238.63,6.82Zm-2,0a5.82,5.82,0,0,0-.35-2,5.1,5.1,0,0,0-1-1.67A4.88,4.88,0,0,0,233.77,2a5.05,5.05,0,0,0-2.06-.41,5,5,0,0,0-2,.41,4.73,4.73,0,0,0-1.54,1.13,5.47,5.47,0,0,0-1,1.67,5.81,5.81,0,0,0-.34,2,5.9,5.9,0,0,0,.34,2,5.09,5.09,0,0,0,1,1.67,4.64,4.64,0,0,0,1.54,1.11,4.89,4.89,0,0,0,2,.4,5,5,0,0,0,2-.4,4.56,4.56,0,0,0,1.57-1.11,4.9,4.9,0,0,0,1-1.67A5.91,5.91,0,0,0,236.66,6.82Z"/><path class="cls-3" d="M250.29,10.74h0V.33h1.82v13h-2.29L243,2.72h0V13.35h-1.82V.33h2.37Z"/><path class="cls-3" d="M95.83,20.28a3,3,0,0,0-1-.87,3.17,3.17,0,0,0-1.49-.34,3.46,3.46,0,0,0-.89.12,2.67,2.67,0,0,0-.82.38,2.28,2.28,0,0,0-.6.67,1.87,1.87,0,0,0-.23.94,1.76,1.76,0,0,0,.21.9,2,2,0,0,0,.57.6,3.37,3.37,0,0,0,.85.42l1,.36c.44.14.89.29,1.34.46A5,5,0,0,1,96,24.6a3.41,3.41,0,0,1,.9,1.06,3.23,3.23,0,0,1,.35,1.61A3.9,3.9,0,0,1,96.87,29a3.67,3.67,0,0,1-1,1.23,4.06,4.06,0,0,1-1.44.72,5.88,5.88,0,0,1-1.68.24,6.27,6.27,0,0,1-2.38-.47,4.84,4.84,0,0,1-1.91-1.42l1.42-1.2a3.5,3.5,0,0,0,2.91,1.53,3.3,3.3,0,0,0,.92-.13,2.55,2.55,0,0,0,.83-.4,2.4,2.4,0,0,0,.62-.69,2,2,0,0,0,.24-1,1.89,1.89,0,0,0-.25-1,2.25,2.25,0,0,0-.67-.67,4.55,4.55,0,0,0-1-.47l-1.18-.39a12.88,12.88,0,0,1-1.23-.45A4.46,4.46,0,0,1,90,23.79a3.06,3.06,0,0,1-.77-1,3.34,3.34,0,0,1-.3-1.5,3.42,3.42,0,0,1,.4-1.68,3.56,3.56,0,0,1,1-1.15,4.39,4.39,0,0,1,1.43-.68,6.36,6.36,0,0,1,1.61-.21,5.66,5.66,0,0,1,2.14.41A4.34,4.34,0,0,1,97.12,19Z"/><path class="cls-3" d="M111,28.87a5.72,5.72,0,0,1-2,1.7,6.22,6.22,0,0,1-3,.65,7.43,7.43,0,0,1-2.75-.5,6.4,6.4,0,0,1-3.6-3.59,7.3,7.3,0,0,1-.51-2.77,7.17,7.17,0,0,1,.52-2.78,6.23,6.23,0,0,1,1.45-2.15,6.49,6.49,0,0,1,2.2-1.39,7.56,7.56,0,0,1,2.76-.5,7.69,7.69,0,0,1,1.34.13,7.32,7.32,0,0,1,1.31.39,5.73,5.73,0,0,1,1.14.63,4.08,4.08,0,0,1,.88.88l-1.44,1.1a3.49,3.49,0,0,0-1.35-1.1,4.29,4.29,0,0,0-1.88-.43,4.81,4.81,0,0,0-2,.42,4.54,4.54,0,0,0-1.56,1.13,5.23,5.23,0,0,0-1,1.66,5.82,5.82,0,0,0-.35,2,6.22,6.22,0,0,0,.34,2.06,4.88,4.88,0,0,0,1,1.67A4.44,4.44,0,0,0,104,29.2a5,5,0,0,0,2,.41,4.43,4.43,0,0,0,2-.45,3.9,3.9,0,0,0,1.49-1.28Z"/><path class="cls-3" d="M112.84,17.87h1.82v5.45h6.58V17.87h1.84v13h-1.84v-6h-6.58v6h-1.82Z"/><path class="cls-3" d="M128.06,29.27h6.81v1.62h-8.63v-13h8.35v1.6h-6.53v3.9h6.14v1.56h-6.14Z"/><path class="cls-3" d="M137.29,17.87h4.47a9,9,0,0,1,2.5.37,6.74,6.74,0,0,1,2.26,1.16,5.94,5.94,0,0,1,1.64,2,6.44,6.44,0,0,1,.62,3,6.26,6.26,0,0,1-.62,2.9,6,6,0,0,1-1.64,2,7,7,0,0,1-2.26,1.2,8.35,8.35,0,0,1-2.5.39h-4.47Zm1.82,11.42h2.28a6.92,6.92,0,0,0,2.18-.33A5.08,5.08,0,0,0,145.3,28a4.41,4.41,0,0,0,1.13-1.55,5.08,5.08,0,0,0,.41-2.08,5.22,5.22,0,0,0-.41-2.13,4.37,4.37,0,0,0-1.13-1.54,4.88,4.88,0,0,0-1.73-.93,6.92,6.92,0,0,0-2.18-.32h-2.28Z"/><path class="cls-3" d="M156.25,31.22a5.33,5.33,0,0,1-2.24-.43,4.46,4.46,0,0,1-1.58-1.15A4.6,4.6,0,0,1,151.5,28a6.24,6.24,0,0,1-.31-1.93v-8.2H153V26a5.37,5.37,0,0,0,.17,1.32,3.48,3.48,0,0,0,.54,1.17,2.62,2.62,0,0,0,1,.82,3.33,3.33,0,0,0,1.53.32,3.39,3.39,0,0,0,1.53-.32,2.7,2.7,0,0,0,1-.82,3.48,3.48,0,0,0,.54-1.17,5.37,5.37,0,0,0,.17-1.32V17.87h1.82v8.2A6,6,0,0,1,161,28a4.73,4.73,0,0,1-.92,1.64,4.59,4.59,0,0,1-1.59,1.15A5.33,5.33,0,0,1,156.25,31.22Z"/><path class="cls-3" d="M166.2,29.27H172v1.62h-7.63v-13h1.82Z"/><path class="cls-3" d="M175.59,29.27h6.81v1.62h-8.63v-13h8.35v1.6h-6.53v3.9h6.15v1.56h-6.15Z"/><path class="cls-3" d="M186.65,30.89h-1.82v-13H189a7.89,7.89,0,0,1,1.78.2,4.39,4.39,0,0,1,1.48.61,3,3,0,0,1,1,1.12,3.45,3.45,0,0,1,.37,1.68,3.11,3.11,0,0,1-.88,2.31,4.12,4.12,0,0,1-2.28,1.13l3.64,6H191.9l-3.31-5.79h-1.94Zm0-7.32h2.09a5.69,5.69,0,0,0,1.2-.11,2.82,2.82,0,0,0,1-.36,1.74,1.74,0,0,0,.65-.64,1.85,1.85,0,0,0,.24-1,1.77,1.77,0,0,0-.87-1.62,2.77,2.77,0,0,0-.93-.34,5.76,5.76,0,0,0-1.12-.1h-2.22Z"/></g></g></svg>