<svg xmlns="http://www.w3.org/2000/svg" viewBox="0 0 18 18"><defs><style>.cls-1{fill:gray;}</style></defs><g id="Layer_2" data-name="Layer 2"><g id="Layer_1_copy" data-name="Layer 1 copy"><path class="cls-1" d="M13.5,18a4.5,4.5,0,0,1-3.18-7.68h0A4.5,4.5,0,1,1,13.5,18Zm-2.39-6.89a3.38,3.38,0,1,0,2.39-1,3.4,3.4,0,0,0-2.39,1Z"/><rect class="cls-1" x="9.56" y="12.94" width="7.87" height="1.12" transform="translate(-5.59 13.5) rotate(-45)"/><path class="cls-1" d="M9,18H0v-.56c0-1.8,1.94-2.6,3.65-3.31,1.25-.51,2.54-1.05,2.54-1.75a2.28,2.28,0,0,0-.5-1.12A7.69,7.69,0,0,1,4.62,9H4.5C3.63,9,3.17,7.83,3.17,6.68a2,2,0,0,1,.76-1.82,5.07,5.07,0,0,1,10.14,0,1.26,1.26,0,0,1,.41.39,3.5,3.5,0,0,1,.1,2.84l-1.05-.43a2.18,2.18,0,0,0,0-1.82h-.59l0-.68a.31.31,0,0,0,0-.1,4,4,0,0,0-7.9,0,.31.31,0,0,0,0,.1l0,.68H4.5s-.16.18-.2.64a2.45,2.45,0,0,0,.27,1.4h.95l.09.44a6.44,6.44,0,0,0,1,2.33,3.19,3.19,0,0,1,.68,1.73c0,1.46-1.64,2.14-3.23,2.79-1.17.49-2.37,1-2.8,1.71H9Z"/></g></g></svg>