<svg xmlns="http://www.w3.org/2000/svg" viewBox="0 0 535.79 63"><defs><style>.cls-1{fill:#f88d2a;}.cls-2{fill:#fff;}.cls-3{fill:#95d4e9;}</style></defs><g id="Layer_2" data-name="Layer 2"><g id="Layer_1_copy" data-name="Layer 1 copy"><polygon class="cls-1" points="9.53 15.56 3.49 5.76 3.43 5.76 3.51 15.56 0 15.56 0 0.57 4.13 0.57 10.14 10.35 10.21 10.35 10.12 0.57 13.63 0.57 13.63 15.56 9.53 15.56"/><polygon class="cls-1" points="23.48 9.21 23.48 15.56 19.86 15.56 19.86 9.21 14.23 0.57 18.61 0.57 21.81 6.12 25 0.57 29.24 0.57 23.48 9.21"/><path class="cls-1" d="M39,15.3a8.07,8.07,0,0,1-3.37.66,8.79,8.79,0,0,1-3.2-.57,7.44,7.44,0,0,1-4.25-4.13A8.18,8.18,0,0,1,27.61,8a8.34,8.34,0,0,1,.62-3.26A7.19,7.19,0,0,1,30,2.3,7.54,7.54,0,0,1,32.54.72a9.27,9.27,0,0,1,6.32,0,6.1,6.1,0,0,1,2.49,1.64L38.89,4.83a3,3,0,0,0-1.33-1,4.46,4.46,0,0,0-3.44,0,4.18,4.18,0,0,0-1.37,1,4.64,4.64,0,0,0-.89,1.45A5.17,5.17,0,0,0,31.54,8a5.36,5.36,0,0,0,.32,1.87,4.58,4.58,0,0,0,.88,1.45,4.14,4.14,0,0,0,3.06,1.28,4.05,4.05,0,0,0,1.89-.42A3.77,3.77,0,0,0,39,11.11l2.52,2.38A7.25,7.25,0,0,1,39,15.3"/><polygon class="cls-2" points="9.46 34.62 9.46 28.35 3.62 28.35 3.62 34.62 0 34.62 0 19.63 3.62 19.63 3.62 25.3 9.46 25.3 9.46 19.63 13.08 19.63 13.08 34.62 9.46 34.62"/><polygon class="cls-2" points="15.27 34.62 15.27 19.63 25.35 19.63 25.35 22.68 18.77 22.68 18.77 25.51 24.99 25.51 24.99 28.41 18.77 28.41 18.77 31.52 25.73 31.52 25.73 34.62 15.27 34.62"/><path class="cls-2" d="M38.5,34.62l-1.16-2.95H31.53l-1.1,2.95H26.49l6.29-15H36.3l6.22,15Zm-4-11-1.91,5.14h3.77Z"/><polygon class="cls-2" points="43.24 34.62 43.24 19.63 46.88 19.63 46.88 31.46 52.69 31.46 52.69 34.62 43.24 34.62"/><polygon class="cls-2" points="59.04 22.72 59.04 34.62 55.42 34.62 55.42 22.72 51.19 22.72 51.19 19.63 63.28 19.63 63.28 22.72 59.04 22.72"/><polygon class="cls-2" points="74.3 34.62 74.3 28.35 68.46 28.35 68.46 34.62 64.84 34.62 64.84 19.63 68.46 19.63 68.46 25.3 74.3 25.3 74.3 19.63 77.92 19.63 77.92 34.62 74.3 34.62"/><polygon class="cls-2" points="9.46 53.67 9.46 47.41 3.62 47.41 3.62 53.67 0 53.67 0 38.68 3.62 38.68 3.62 44.36 9.46 44.36 9.46 38.68 13.08 38.68 13.08 53.67 9.46 53.67"/><path class="cls-2" d="M30.83,46.11a8.33,8.33,0,0,1-.62,3.25,7.33,7.33,0,0,1-1.7,2.52,7.53,7.53,0,0,1-2.6,1.62,9.42,9.42,0,0,1-6.51,0,7.63,7.63,0,0,1-2.58-1.62,7.19,7.19,0,0,1-1.7-2.52,8.83,8.83,0,0,1,0-6.5,7,7,0,0,1,1.7-2.46,7.67,7.67,0,0,1,2.58-1.57,9.91,9.91,0,0,1,6.51,0,7.57,7.57,0,0,1,2.6,1.57,7.18,7.18,0,0,1,1.7,2.46,8.29,8.29,0,0,1,.62,3.25m-3.88,0a5,5,0,0,0-.32-1.82,4.24,4.24,0,0,0-.88-1.45,4,4,0,0,0-1.35-1,4.33,4.33,0,0,0-1.74-.35,4.2,4.2,0,0,0-3.1,1.3,4.07,4.07,0,0,0-.87,1.45,5.19,5.19,0,0,0-.31,1.82A5.41,5.41,0,0,0,18.69,48a4.68,4.68,0,0,0,.88,1.47,4.06,4.06,0,0,0,1.35,1,4.48,4.48,0,0,0,3.47,0,4.06,4.06,0,0,0,1.35-1A4.2,4.2,0,0,0,26.63,48,5.19,5.19,0,0,0,27,46.11"/><path class="cls-2" d="M40.16,42.58A3.17,3.17,0,0,0,39,41.64a3.35,3.35,0,0,0-1.45-.35,4.49,4.49,0,0,0-.73.06,2.05,2.05,0,0,0-.67.24,1.72,1.72,0,0,0-.5.47,1.26,1.26,0,0,0-.2.73,1.11,1.11,0,0,0,.16.63,1.45,1.45,0,0,0,.47.45,3.83,3.83,0,0,0,.73.35l1,.33c.51.17,1,.35,1.59.56a5.71,5.71,0,0,1,1.5.81,4.38,4.38,0,0,1,1.12,1.26,3.61,3.61,0,0,1,.45,1.88,4.86,4.86,0,0,1-.48,2.23,4.55,4.55,0,0,1-1.28,1.56,5.56,5.56,0,0,1-1.84.91,7.67,7.67,0,0,1-2.14.29,8.91,8.91,0,0,1-3.11-.56,6.45,6.45,0,0,1-2.5-1.6l2.37-2.41a4.38,4.38,0,0,0,1.45,1.13,3.88,3.88,0,0,0,1.79.46,3.33,3.33,0,0,0,.78-.09,1.82,1.82,0,0,0,.67-.27,1.39,1.39,0,0,0,.45-.51,1.52,1.52,0,0,0,.17-.76,1.2,1.2,0,0,0-.21-.72,2,2,0,0,0-.6-.54,5.33,5.33,0,0,0-1-.45l-1.32-.43a14.19,14.19,0,0,1-1.41-.55A4.72,4.72,0,0,1,33,45.93a3.69,3.69,0,0,1-.86-1.21A4,4,0,0,1,31.76,43a4.24,4.24,0,0,1,.51-2.14A4.33,4.33,0,0,1,33.6,39.4a5.83,5.83,0,0,1,1.86-.84,8.81,8.81,0,0,1,2.1-.26,7.76,7.76,0,0,1,2.59.47,6.52,6.52,0,0,1,2.32,1.37Z"/><path class="cls-2" d="M55.58,43.3a4.54,4.54,0,0,1-.49,2.21A4.07,4.07,0,0,1,53.78,47a6,6,0,0,1-1.91.81,10.32,10.32,0,0,1-2.24.25h-1.8v5.65H44.21v-15h5.5a10.47,10.47,0,0,1,2.3.24,5.59,5.59,0,0,1,1.86.79,3.74,3.74,0,0,1,1.25,1.42,4.58,4.58,0,0,1,.46,2.17m-3.62,0a1.54,1.54,0,0,0-.22-.87,1.5,1.5,0,0,0-.56-.53,2.45,2.45,0,0,0-.82-.25,7.3,7.3,0,0,0-.94-.07H47.83v3.54h1.52a5.18,5.18,0,0,0,1-.09,2.4,2.4,0,0,0,.83-.29,1.56,1.56,0,0,0,.58-.56,1.62,1.62,0,0,0,.22-.88"/><rect class="cls-2" x="57" y="38.68" width="3.64" height="14.99"/><polygon class="cls-2" points="69.89 41.77 69.89 53.67 66.27 53.67 66.27 41.77 62.03 41.77 62.03 38.68 74.13 38.68 74.13 41.77 69.89 41.77"/><path class="cls-2" d="M84.1,53.67l-1.17-2.94h-5.8L76,53.67H72.09l6.29-15H81.9l6.22,15Zm-4-11-1.91,5.15h3.77Z"/><polygon class="cls-2" points="89.13 53.67 89.13 38.68 92.77 38.68 92.77 50.52 98.57 50.52 98.57 53.67 89.13 53.67"/><path class="cls-2" d="M108.08,42.58a3.28,3.28,0,0,0-1.22-.94,3.35,3.35,0,0,0-1.45-.35,4.59,4.59,0,0,0-.73.06,2.05,2.05,0,0,0-.67.24,1.72,1.72,0,0,0-.5.47,1.26,1.26,0,0,0-.2.73,1.2,1.2,0,0,0,.16.63,1.45,1.45,0,0,0,.47.45,3.83,3.83,0,0,0,.73.35l1,.33c.51.17,1,.35,1.59.56a5.71,5.71,0,0,1,1.5.81,4.24,4.24,0,0,1,1.12,1.26,3.61,3.61,0,0,1,.45,1.88,4.86,4.86,0,0,1-.48,2.23,4.44,4.44,0,0,1-1.28,1.56,5.56,5.56,0,0,1-1.84.91,7.67,7.67,0,0,1-2.14.29,8.91,8.91,0,0,1-3.11-.56,6.45,6.45,0,0,1-2.5-1.6l2.37-2.41a4.38,4.38,0,0,0,1.45,1.13,3.88,3.88,0,0,0,1.79.46,3.33,3.33,0,0,0,.78-.09,1.75,1.75,0,0,0,.67-.27,1.51,1.51,0,0,0,.46-.51,1.64,1.64,0,0,0,.17-.76,1.21,1.21,0,0,0-.22-.72,2,2,0,0,0-.6-.54,5.54,5.54,0,0,0-1-.45c-.39-.13-.83-.28-1.33-.43a13.12,13.12,0,0,1-1.4-.55,4.56,4.56,0,0,1-1.23-.82,3.72,3.72,0,0,1-.87-1.21A4,4,0,0,1,99.67,43a4.24,4.24,0,0,1,.51-2.14,4.44,4.44,0,0,1,1.33-1.46,5.79,5.79,0,0,1,1.87-.84,8.61,8.61,0,0,1,2.09-.26,7.86,7.86,0,0,1,2.6.47,6.56,6.56,0,0,1,2.31,1.37Z"/><polygon class="cls-3" points="96.61 25.3 90.94 25.3 90.94 19.63 87.3 19.63 87.3 25.3 81.62 25.3 81.62 28.94 87.3 28.94 87.3 34.62 90.94 34.62 90.94 28.94 96.61 28.94 96.61 25.3"/><rect class="cls-2" x="132.24" y="0.57" width="1.21" height="62.43"/><path class="cls-3" d="M159.56,20.53h11.9v2.83H156.37V.58H171v2.8H159.56V10.2H170.3v2.74H159.56Z"/><path class="cls-3" d="M187.49,18.08h.06L194.28.58h4.95V23.36h-3.18v-19H196l-7.56,19.05h-2l-7.53-19h-.06V23.36h-3.09V.58h5Z"/><path class="cls-3" d="M204.77.58h6.95a14,14,0,0,1,3.35.37,7.47,7.47,0,0,1,2.57,1.14,5.28,5.28,0,0,1,1.64,2,6.47,6.47,0,0,1,.58,2.87,6.34,6.34,0,0,1-.63,2.93,5.31,5.31,0,0,1-1.74,2A7.58,7.58,0,0,1,214.86,13a13.84,13.84,0,0,1-3.3.37H208v10h-3.18ZM208,10.65h3.38a10.22,10.22,0,0,0,2.14-.21,5.27,5.27,0,0,0,1.69-.64,3.08,3.08,0,0,0,1.1-1.14,3.7,3.7,0,0,0,.38-1.74,3.34,3.34,0,0,0-.4-1.72,3.27,3.27,0,0,0-1.09-1.13,4.81,4.81,0,0,0-1.66-.61,11.46,11.46,0,0,0-2.09-.18H208Z"/><path class="cls-3" d="M227.1,20.53h10.17v2.83H223.91V.58h3.19Z"/><path class="cls-3" d="M263.33,11.94a12.49,12.49,0,0,1-.91,4.84,11.5,11.5,0,0,1-2.53,3.8,11.35,11.35,0,0,1-3.83,2.48,13.64,13.64,0,0,1-9.64,0,11.17,11.17,0,0,1-6.32-6.28,12.68,12.68,0,0,1-.9-4.84,12.81,12.81,0,0,1,.9-4.88,10.94,10.94,0,0,1,2.51-3.76A11.4,11.4,0,0,1,246.42.87a13.79,13.79,0,0,1,9.64,0,11.39,11.39,0,0,1,3.83,2.43,11.13,11.13,0,0,1,2.53,3.76A12.62,12.62,0,0,1,263.33,11.94Zm-3.44,0a10.08,10.08,0,0,0-.61-3.53,9.09,9.09,0,0,0-1.74-2.91,8.33,8.33,0,0,0-2.72-2,8.62,8.62,0,0,0-3.59-.72,8.53,8.53,0,0,0-3.55.72,8.15,8.15,0,0,0-2.7,2,9.07,9.07,0,0,0-1.73,2.91,10.31,10.31,0,0,0-.61,3.53,10.5,10.5,0,0,0,.61,3.57A8.68,8.68,0,0,0,245,18.42a8,8,0,0,0,2.7,1.95,8.64,8.64,0,0,0,3.54.71,8.87,8.87,0,0,0,3.58-.71,7.92,7.92,0,0,0,2.73-1.95,8.68,8.68,0,0,0,1.74-2.91A10.26,10.26,0,0,0,259.89,11.94Z"/><path class="cls-3" d="M276.56,23.36h-3.22V13.52L264.81.58h3.93l6.31,10.3L281.39.58h3.7l-8.53,12.94Z"/><path class="cls-3" d="M290.94,20.53h11.91v2.83H287.76V.58h14.61v2.8H290.94V10.2h10.75v2.74H290.94Z"/><path class="cls-3" d="M310.28,20.53h11.91v2.83H307.1V.58h14.61v2.8H310.28V10.2H321v2.74H310.28Z"/><path class="cls-3" d="M163.93,49.66h.1L170.88,31h3.45l-9,22.78h-3L153.54,31h3.54Z"/><path class="cls-3" d="M178,53.77h-3.54L184.3,31h2.9L197,53.77h-3.6l-2.32-5.59H180.25Zm3.41-8.39h8.53l-4.25-10.69Z"/><path class="cls-3" d="M219.44,50.23a10.11,10.11,0,0,1-3.51,3,10.92,10.92,0,0,1-5.18,1.14,12.82,12.82,0,0,1-4.81-.88,11.16,11.16,0,0,1-6.29-6.28,13.41,13.41,0,0,1,0-9.71,11,11,0,0,1,2.54-3.77,11.48,11.48,0,0,1,3.85-2.43,13.07,13.07,0,0,1,4.82-.87,12.64,12.64,0,0,1,2.35.23,11.83,11.83,0,0,1,2.29.67,9.61,9.61,0,0,1,2,1.11A7.26,7.26,0,0,1,219.06,34l-2.51,1.93A6.27,6.27,0,0,0,214.18,34a7.27,7.27,0,0,0-3.3-.76,8.5,8.5,0,0,0-3.59.73,8.27,8.27,0,0,0-2.72,2,8.83,8.83,0,0,0-1.73,2.92,10,10,0,0,0-.61,3.52,10.54,10.54,0,0,0,.59,3.6,8.76,8.76,0,0,0,1.71,2.92,7.91,7.91,0,0,0,2.7,1.94,8.54,8.54,0,0,0,3.56.71,7.92,7.92,0,0,0,3.5-.77,6.89,6.89,0,0,0,2.61-2.25Z"/><path class="cls-3" d="M242.22,50.23a10.17,10.17,0,0,1-3.5,3,11,11,0,0,1-5.18,1.14,12.75,12.75,0,0,1-4.81-.88,11.23,11.23,0,0,1-3.8-2.48,11.42,11.42,0,0,1-2.5-3.8,13.41,13.41,0,0,1,0-9.71A11,11,0,0,1,225,33.71a11.68,11.68,0,0,1,3.85-2.43,13.11,13.11,0,0,1,4.82-.87,12.56,12.56,0,0,1,2.35.23,11.63,11.63,0,0,1,2.29.67,9.36,9.36,0,0,1,2,1.11A7.26,7.26,0,0,1,241.84,34l-2.51,1.93A6.27,6.27,0,0,0,237,34a7.27,7.27,0,0,0-3.3-.76,8.42,8.42,0,0,0-3.58.73,8.07,8.07,0,0,0-2.72,2,9,9,0,0,0-1.74,2.92,10,10,0,0,0-.61,3.52,10.79,10.79,0,0,0,.59,3.6,8.76,8.76,0,0,0,1.71,2.92,7.91,7.91,0,0,0,2.7,1.94,8.54,8.54,0,0,0,3.56.71,8,8,0,0,0,3.51-.77,6.79,6.79,0,0,0,2.6-2.25Z"/><path class="cls-3" d="M248.66,53.77h-3.19V31h3.19Z"/><path class="cls-3" d="M270.25,49.2h.07V31h3.18V53.77h-4l-12-18.6h-.07v18.6h-3.19V31h4.16Z"/><path class="cls-3" d="M280,53.77h-3.54L286.31,31h2.9L299,53.77h-3.61l-2.31-5.59H282.25Zm3.41-8.39h8.53l-4.25-10.69Z"/><path class="cls-3" d="M309.9,53.77h-3.19v-20h-7.3V31H317.2v2.8h-7.3Z"/><path class="cls-3" d="M323.41,53.77h-3.18V31h3.18Z"/><path class="cls-3" d="M351.92,42.35a12.49,12.49,0,0,1-.91,4.84,11.65,11.65,0,0,1-2.53,3.8,11.35,11.35,0,0,1-3.83,2.48,13.64,13.64,0,0,1-9.64,0,11.17,11.17,0,0,1-6.32-6.28,13.54,13.54,0,0,1,0-9.71,11,11,0,0,1,2.51-3.77A11.4,11.4,0,0,1,335,31.28a13.79,13.79,0,0,1,9.64,0,11,11,0,0,1,6.36,6.2A12.57,12.57,0,0,1,351.92,42.35Zm-3.44,0a10.25,10.25,0,0,0-.61-3.52,9,9,0,0,0-1.74-2.92,8.17,8.17,0,0,0-2.72-2,8.47,8.47,0,0,0-3.59-.73,8.35,8.35,0,0,0-3.55.73,8,8,0,0,0-2.71,2,9.16,9.16,0,0,0-1.72,2.92,10,10,0,0,0-.61,3.52,10.22,10.22,0,0,0,.61,3.57,8.68,8.68,0,0,0,1.74,2.91,8,8,0,0,0,2.7,2,8.57,8.57,0,0,0,3.54.71,8.78,8.78,0,0,0,3.57-.71,7.87,7.87,0,0,0,2.74-2,8.68,8.68,0,0,0,1.74-2.91A10.46,10.46,0,0,0,348.48,42.35Z"/><path class="cls-3" d="M372.32,49.2h.07V31h3.18V53.77h-4l-12-18.6h-.07v18.6h-3.18V31h4.15Z"/><path class="cls-3" d="M392.34,53.77h-3.19V31h7.31a13.75,13.75,0,0,1,3.12.34,7.46,7.46,0,0,1,2.59,1.08,5.28,5.28,0,0,1,1.75,1.94,6.21,6.21,0,0,1,.65,2.95A5.48,5.48,0,0,1,403,41.35a7.2,7.2,0,0,1-4,2l6.37,10.45h-3.86l-5.79-10.13h-3.41Zm0-12.8H396a10.52,10.52,0,0,0,2.09-.2,5.06,5.06,0,0,0,1.69-.62A3.33,3.33,0,0,0,400.93,39a3.31,3.31,0,0,0-1.11-4.55,4.87,4.87,0,0,0-1.62-.6,10.46,10.46,0,0,0-2-.18h-3.89Z"/><path class="cls-3" d="M412.1,50.94H424v2.83H408.91V31h14.61v2.8H412.1v6.82h10.74v2.74H412.1Z"/><path class="cls-3" d="M445.43,35.69a7.36,7.36,0,0,0-2.62-1.8,9,9,0,0,0-3.55-.68,8.59,8.59,0,0,0-3.61.73,8.11,8.11,0,0,0-2.73,2,9,9,0,0,0-1.74,2.92,10,10,0,0,0-.61,3.52,10.22,10.22,0,0,0,.61,3.57,8.68,8.68,0,0,0,1.74,2.91,7.86,7.86,0,0,0,2.76,2,9.24,9.24,0,0,0,3.67.71,14.28,14.28,0,0,0,3-.29,8.32,8.32,0,0,0,2.35-.84V44h-5.05v-2.7h8.21v11a16.63,16.63,0,0,1-3.93,1.48,19.84,19.84,0,0,1-4.63.51,13.23,13.23,0,0,1-4.91-.88A11.44,11.44,0,0,1,430.5,51a11.3,11.3,0,0,1-2.51-3.8,13.41,13.41,0,0,1,0-9.71,11,11,0,0,1,2.54-3.77,11.58,11.58,0,0,1,3.85-2.43,13.11,13.11,0,0,1,4.82-.87,13.72,13.72,0,0,1,4.88.81,10.16,10.16,0,0,1,3.55,2.15Z"/><path class="cls-3" d="M456.47,53.77h-3.18V31h3.18Z"/><path class="cls-3" d="M473.33,35.21a5,5,0,0,0-1.83-1.53,5.58,5.58,0,0,0-2.61-.6,6.09,6.09,0,0,0-1.56.21,4.38,4.38,0,0,0-1.43.68,3.76,3.76,0,0,0-1,1.16,3.3,3.3,0,0,0-.4,1.65,3.05,3.05,0,0,0,.37,1.56,3.4,3.4,0,0,0,1,1.07,6.6,6.6,0,0,0,1.48.74c.57.2,1.17.41,1.82.62s1.55.51,2.35.81a8.47,8.47,0,0,1,2.15,1.19,5.44,5.44,0,0,1,2.19,4.67,6.71,6.71,0,0,1-.66,3.07,6.17,6.17,0,0,1-1.75,2.15,7.46,7.46,0,0,1-2.53,1.28,10.71,10.71,0,0,1-2.94.41,10.89,10.89,0,0,1-4.17-.83A8.34,8.34,0,0,1,460.43,51L462.91,49a6,6,0,0,0,2.15,1.93,6.07,6.07,0,0,0,2.93.74,6,6,0,0,0,1.61-.23,4.53,4.53,0,0,0,1.47-.7,4.15,4.15,0,0,0,1.07-1.21,3.45,3.45,0,0,0,.42-1.76,3.18,3.18,0,0,0-.43-1.72A3.77,3.77,0,0,0,471,44.83a7.42,7.42,0,0,0-1.72-.82c-.65-.23-1.35-.46-2.07-.69a19.31,19.31,0,0,1-2.16-.79,7.53,7.53,0,0,1-1.9-1.19,5.49,5.49,0,0,1-1.35-1.79,6.09,6.09,0,0,1-.52-2.64,5.91,5.91,0,0,1,.7-2.93,6.25,6.25,0,0,1,1.8-2,7.53,7.53,0,0,1,2.51-1.18,11.24,11.24,0,0,1,2.81-.37,9.88,9.88,0,0,1,3.74.71,7.46,7.46,0,0,1,2.8,1.9Z"/><path class="cls-3" d="M488.3,53.77h-3.19v-20h-7.3V31H495.6v2.8h-7.3Z"/><path class="cls-3" d="M501.81,53.77h-3.18V31h7.3a13.75,13.75,0,0,1,3.12.34,7.46,7.46,0,0,1,2.59,1.08,5.3,5.3,0,0,1,1.76,1.94A6.21,6.21,0,0,1,514,37.3a5.51,5.51,0,0,1-1.54,4.05,7.24,7.24,0,0,1-4,2l6.37,10.45H511l-5.79-10.13h-3.41Zm0-12.8h3.67a10.52,10.52,0,0,0,2.09-.2,5,5,0,0,0,1.69-.62A3.33,3.33,0,0,0,510.4,39a3.31,3.31,0,0,0-1.11-4.55,4.87,4.87,0,0,0-1.62-.6,10.38,10.38,0,0,0-2-.18h-3.89Z"/><path class="cls-3" d="M527.26,53.77h-3.21V43.93L515.52,31h3.93l6.3,10.3L532.09,31h3.7l-8.53,12.94Z"/></g></g></svg>