<svg xmlns="http://www.w3.org/2000/svg" viewBox="0 0 18 18"><defs><style>.cls-1{fill:#fff;}</style></defs><g id="Layer_2" data-name="Layer 2"><g id="Layer_1_copy" data-name="Layer 1 copy"><polygon class="cls-1" points="18 15.75 14.06 15.75 14.06 14.63 16.88 14.63 16.88 4.5 14.2 4.5 11.95 5.63 6.05 5.63 3.81 4.5 1.13 4.5 1.13 14.63 3.94 14.63 3.94 15.75 0 15.75 0 3.38 4.07 3.38 6.32 4.5 11.68 4.5 13.93 3.38 18 3.38 18 15.75"/><path class="cls-1" d="M14.62,18H3.38V10.12H14.62ZM4.5,16.88h9V11.25h-9Z"/><rect class="cls-1" x="6.75" y="14.63" width="4.5" height="1.13"/><rect class="cls-1" x="6.75" y="12.38" width="4.5" height="1.13"/><circle class="cls-1" cx="3.94" cy="8.44" r="0.56"/><polygon class="cls-1" points="14.63 3.94 13.5 3.94 13.5 1.13 4.5 1.13 4.5 3.94 3.38 3.94 3.38 0 14.63 0 14.63 3.94"/></g></g></svg>