<svg xmlns="http://www.w3.org/2000/svg" viewBox="0 0 18.2 18"><defs><style>.cls-1{fill:#1a428a;}</style></defs><g id="Layer_2" data-name="Layer 2"><g id="Layer_1_copy" data-name="Layer 1 copy"><polygon class="cls-1" points="18.2 18 0 18 1.31 10.13 3.48 10.13 3.48 11.25 2.27 11.25 1.33 16.88 16.88 16.88 15.94 11.25 14.73 11.25 14.73 10.13 16.89 10.13 18.2 18"/><path class="cls-1" d="M9.1,7.88a2.25,2.25,0,1,1,2.25-2.26A2.26,2.26,0,0,1,9.1,7.88Zm0-3.38a1.13,1.13,0,1,0,1.13,1.12A1.12,1.12,0,0,0,9.1,4.5Z"/><path class="cls-1" d="M9.1,15.65,4.16,8.16a5.15,5.15,0,0,1-.68-2.54,5.63,5.63,0,0,1,11.25,0,5.09,5.09,0,0,1-.68,2.53L9.57,14.94Zm0-14.53a4.51,4.51,0,0,0-4.5,4.5,3.93,3.93,0,0,0,.52,2l4,6C10.2,12,12.84,8,13.1,7.54a3.9,3.9,0,0,0,.5-1.92A4.51,4.51,0,0,0,9.1,1.12Z"/></g></g></svg>