<svg xmlns="http://www.w3.org/2000/svg" viewBox="0 0 18 18"><defs><style>.cls-1{fill:#1a428a;}</style></defs><g id="Layer_2" data-name="Layer 2"><g id="Layer_1_copy" data-name="Layer 1 copy"><path class="cls-1" d="M9,18a9,9,0,1,1,9-9A9,9,0,0,1,9,18ZM9,1.12A7.88,7.88,0,1,0,16.88,9,7.9,7.9,0,0,0,9,1.12Z"/><rect class="cls-1" x="8.44" y="15.23" width="1.13" height="2.2"/><rect class="cls-1" x="8.44" y="0.56" width="1.13" height="2.25"/><rect class="cls-1" x="0.56" y="8.44" width="2.25" height="1.13"/><rect class="cls-1" x="15.19" y="8.44" width="2.25" height="1.13"/><polygon class="cls-1" points="6.02 12.77 5.23 11.98 8.44 8.77 8.44 5.63 9.56 5.63 9.56 9.23 6.02 12.77"/></g></g></svg>