<svg xmlns="http://www.w3.org/2000/svg" viewBox="0 0 20.12 18"><defs><style>.cls-1{fill:#1d4189;}</style></defs><g id="Layer_2" data-name="Layer 2"><g id="Layer_1_copy" data-name="Layer 1 copy"><polygon class="cls-1" points="20.12 15.75 16.18 15.75 16.18 14.63 18.99 14.63 18.99 4.5 16.31 4.5 14.06 5.63 6.05 5.63 3.81 4.5 1.13 4.5 1.13 14.63 3.94 14.63 3.94 15.75 0 15.75 0 3.38 4.07 3.38 6.32 4.5 13.8 4.5 16.05 3.38 20.12 3.38 20.12 15.75"/><path class="cls-1" d="M16.74,18H3.38V10.12H16.74ZM4.5,16.88H15.62V11.25H4.5Z"/><rect class="cls-1" x="6.75" y="14.63" width="6.62" height="1.13"/><rect class="cls-1" x="6.75" y="12.38" width="6.62" height="1.13"/><circle class="cls-1" cx="3.94" cy="8.44" r="0.56"/><polygon class="cls-1" points="16.74 3.94 15.62 3.94 15.62 1.13 4.5 1.13 4.5 3.94 3.38 3.94 3.38 0 16.74 0 16.74 3.94"/></g></g></svg>