<svg xmlns="http://www.w3.org/2000/svg" viewBox="0 0 18 18"><defs><style>.cls-1{fill:#1d4189;}</style></defs><g id="Layer_2" data-name="Layer 2"><g id="Layer_1_copy" data-name="Layer 1 copy"><rect class="cls-1" y="1.69" width="1.13" height="11.25"/><rect class="cls-1" x="1.69" width="11.25" height="1.13"/><path class="cls-1" d="M16.31,18H5.06a1.69,1.69,0,0,1-1.68-1.69V5.06A1.68,1.68,0,0,1,5.06,3.38H16.31A1.69,1.69,0,0,1,18,5.06V16.31A1.69,1.69,0,0,1,16.31,18ZM5.06,4.5a.56.56,0,0,0-.56.56V16.31a.57.57,0,0,0,.56.57H16.31a.58.58,0,0,0,.57-.57V5.06a.57.57,0,0,0-.57-.56Z"/><path class="cls-1" d="M1.12,1.69H0A1.69,1.69,0,0,1,1.69,0V1.12A.58.58,0,0,0,1.12,1.69Z"/><path class="cls-1" d="M14.62,1.69H13.5a.57.57,0,0,0-.56-.57V0A1.69,1.69,0,0,1,14.62,1.69Z"/><path class="cls-1" d="M1.69,14.62A1.69,1.69,0,0,1,0,12.94H1.12a.57.57,0,0,0,.57.56Z"/><rect class="cls-1" x="1.69" y="13.5" width="0.56" height="1.13"/><rect class="cls-1" x="13.5" y="1.69" width="1.13" height="0.56"/><rect class="cls-1" x="7.88" y="10.13" width="5.63" height="1.13"/></g></g></svg>