<svg xmlns="http://www.w3.org/2000/svg" viewBox="0 0 241.87 45"><defs><style>.cls-1{fill:#fff;}.cls-2{fill:#f68c2c;}.cls-3{fill:#95d8ec;}</style></defs><g id="Layer_2" data-name="Layer 2"><g id="Layer_1_copy" data-name="Layer 1 copy"><polygon class="cls-1" points="0 34.72 0 44.65 5.55 44.65 5.55 43.81 0.93 43.81 0.93 34.72 0 34.72"/><path class="cls-1" d="M6.21,35.61a.58.58,0,0,1,.19-.45A.6.6,0,0,1,6.84,35a.61.61,0,0,1,.45.18.65.65,0,0,1,0,.9.61.61,0,0,1-.45.18.6.6,0,0,1-.44-.18.58.58,0,0,1-.19-.45m.21,2.57h.84v6.48H6.42Z"/><polygon class="cls-1" points="8.25 38.17 9.2 38.17 11.36 43.74 13.46 38.17 14.32 38.17 11.77 44.66 10.9 44.66 8.25 38.17"/><path class="cls-1" d="M20.88,43.43a2.87,2.87,0,0,1-1.21,1.07,3.93,3.93,0,0,1-1.59.32,3.42,3.42,0,0,1-1.35-.25,3,3,0,0,1-1-.71A3,3,0,0,1,15,42.78a3.77,3.77,0,0,1-.23-1.38A3.9,3.9,0,0,1,15,40.05,3.21,3.21,0,0,1,15.71,39a3.37,3.37,0,0,1,1-.72A3.24,3.24,0,0,1,18,38a3.21,3.21,0,0,1,1.32.25,3.06,3.06,0,0,1,.95.69,2.86,2.86,0,0,1,.58,1,3.24,3.24,0,0,1,.2,1.1v.59H15.64a2.78,2.78,0,0,0,.1.68,2.33,2.33,0,0,0,.39.81,2.23,2.23,0,0,0,.75.67,2.31,2.31,0,0,0,1.21.28,2.77,2.77,0,0,0,1.25-.3,2.32,2.32,0,0,0,.93-.85Zm-.64-2.56a1.92,1.92,0,0,0-.18-.82,2.24,2.24,0,0,0-.48-.66,2.18,2.18,0,0,0-.71-.46,2.38,2.38,0,0,0-.88-.17,2.21,2.21,0,0,0-1.14.28,2.69,2.69,0,0,0-.72.65,2.35,2.35,0,0,0-.38.71,1.6,1.6,0,0,0-.11.47Z"/><polygon class="cls-1" points="28.06 40.38 24.42 34.72 25.52 34.72 28.52 39.44 31.6 34.72 32.63 34.72 28.99 40.38 28.99 44.66 28.06 44.66 28.06 40.38"/><path class="cls-1" d="M31.53,41.41a3.54,3.54,0,0,1,.25-1.36,3.2,3.2,0,0,1,.7-1.08,3.08,3.08,0,0,1,1.08-.71A3.64,3.64,0,0,1,34.94,38a3.54,3.54,0,0,1,1.36.25,3.19,3.19,0,0,1,1.79,1.79,3.85,3.85,0,0,1,0,2.73,3.19,3.19,0,0,1-1.79,1.79,3.54,3.54,0,0,1-1.36.25,3.64,3.64,0,0,1-1.38-.25,3.08,3.08,0,0,1-1.08-.71,3.2,3.2,0,0,1-.7-1.08,3.56,3.56,0,0,1-.25-1.37m.84,0a3.13,3.13,0,0,0,.17,1,2.45,2.45,0,0,0,1.33,1.42,2.81,2.81,0,0,0,2.13,0,2.45,2.45,0,0,0,1.33-1.42,3.13,3.13,0,0,0,.17-1,3.22,3.22,0,0,0-.17-1,2.42,2.42,0,0,0-.52-.84A2.52,2.52,0,0,0,36,39a2.81,2.81,0,0,0-2.13,0,2.52,2.52,0,0,0-.81.57,2.42,2.42,0,0,0-.52.84,3.22,3.22,0,0,0-.17,1"/><path class="cls-1" d="M45.21,42.83c0,.12,0,.27,0,.44s0,.35,0,.53,0,.34,0,.5,0,.27,0,.35h-.84c0-.24,0-.47,0-.7a1.85,1.85,0,0,0,0-.43h0a2.31,2.31,0,0,1-.85.92,2.49,2.49,0,0,1-1.37.38,2.77,2.77,0,0,1-1.24-.24,1.89,1.89,0,0,1-.76-.62,2.27,2.27,0,0,1-.37-.89,5.1,5.1,0,0,1-.1-1V38.17h.84V42a4.67,4.67,0,0,0,.07.76,2.07,2.07,0,0,0,.25.67,1.3,1.3,0,0,0,.49.47,1.64,1.64,0,0,0,.82.17A2.37,2.37,0,0,0,43,43.9a1.82,1.82,0,0,0,.71-.49,2.43,2.43,0,0,0,.48-.82,3.81,3.81,0,0,0,.17-1.18V38.17h.84Z"/><path class="cls-1" d="M47,40c0-.12,0-.27,0-.44s0-.35,0-.53,0-.34,0-.5,0-.27,0-.35h.84c0,.24,0,.47,0,.7a2.83,2.83,0,0,0,0,.43,3.14,3.14,0,0,1,.83-.94A2.09,2.09,0,0,1,49.93,38a1,1,0,0,1,.24,0l.25,0-.1.82a1.25,1.25,0,0,0-.32,0,2.48,2.48,0,0,0-1,.17,1.73,1.73,0,0,0-.66.49,1.91,1.91,0,0,0-.38.72,2.86,2.86,0,0,0-.13.89v3.53H47Z"/><polygon class="cls-1" points="54.61 34.72 55.54 34.72 55.54 39.1 61.09 39.1 61.09 34.72 62.02 34.72 62.02 44.65 61.09 44.65 61.09 39.94 55.54 39.94 55.54 44.65 54.61 44.65 54.61 34.72"/><path class="cls-1" d="M69.73,43.43a2.87,2.87,0,0,1-1.21,1.07,4,4,0,0,1-1.6.32,3.4,3.4,0,0,1-1.34-.25,2.92,2.92,0,0,1-1-.71,3.13,3.13,0,0,1-.67-1.08,4,4,0,0,1-.23-1.38,3.68,3.68,0,0,1,.24-1.35A3.18,3.18,0,0,1,64.55,39a3.41,3.41,0,0,1,1-.72,3.21,3.21,0,0,1,1.3-.25,3.16,3.16,0,0,1,1.31.25,3.11,3.11,0,0,1,1,.69,3,3,0,0,1,.58,1,3.24,3.24,0,0,1,.2,1.1v.59H64.48a2.87,2.87,0,0,0,.11.68,2.49,2.49,0,0,0,.38.81,2.37,2.37,0,0,0,.76.67,2.28,2.28,0,0,0,1.21.28,2.8,2.8,0,0,0,1.25-.3,2.23,2.23,0,0,0,.92-.85Zm-.65-2.56a2.08,2.08,0,0,0-.17-.82,2.24,2.24,0,0,0-.48-.66,2.29,2.29,0,0,0-.71-.46,2.38,2.38,0,0,0-.88-.17A2.19,2.19,0,0,0,65.7,39a2.59,2.59,0,0,0-.73.65,2.9,2.9,0,0,0-.38.71,2,2,0,0,0-.11.47Z"/><path class="cls-1" d="M76.35,41.93c0,.32,0,.61,0,.86s0,.48,0,.7,0,.42,0,.6,0,.38.07.56h-.79a5.55,5.55,0,0,1-.09-1h0a2.47,2.47,0,0,1-.91.93,2.88,2.88,0,0,1-1.36.29,3.25,3.25,0,0,1-.83-.1,2,2,0,0,1-.73-.34,1.72,1.72,0,0,1-.53-.6,1.82,1.82,0,0,1-.2-.88,1.76,1.76,0,0,1,.38-1.18,2.27,2.27,0,0,1,.93-.65,4.52,4.52,0,0,1,1.18-.28c.41,0,.78-.06,1.1-.06h1v-.39a1.35,1.35,0,0,0-.52-1.21,2.17,2.17,0,0,0-1.3-.37,3,3,0,0,0-2,.73l-.49-.57a2.93,2.93,0,0,1,1.15-.68A4,4,0,0,1,73.77,38a3,3,0,0,1,1.88.55,2.17,2.17,0,0,1,.7,1.79Zm-1.68-.53a6.85,6.85,0,0,0-1,.07,3.69,3.69,0,0,0-.9.24,1.61,1.61,0,0,0-.64.45,1,1,0,0,0-.24.7,1.08,1.08,0,0,0,.13.52,1.16,1.16,0,0,0,.35.38,1.47,1.47,0,0,0,.47.23,1.81,1.81,0,0,0,.52.07,2.73,2.73,0,0,0,1.11-.19,2,2,0,0,0,.7-.51,1.73,1.73,0,0,0,.35-.72,3.13,3.13,0,0,0,.1-.8V41.4Z"/><rect class="cls-1" x="78.24" y="34.05" width="0.84" height="10.6"/><path class="cls-1" d="M84.16,38.93H82.31v4.22a.92.92,0,0,0,.24.68.87.87,0,0,0,.66.23,2,2,0,0,0,.48-.06,2.6,2.6,0,0,0,.47-.16l.07.76-.55.15a2.28,2.28,0,0,1-.54.07,2.06,2.06,0,0,1-.78-.13,1.38,1.38,0,0,1-.51-.36,1.25,1.25,0,0,1-.29-.53,2.22,2.22,0,0,1-.09-.65V38.93h-1.4v-.76h1.4V36.31h.84v1.86h1.85Z"/><path class="cls-1" d="M85.18,34.05H86v5.26h0a2.29,2.29,0,0,1,.84-.92A2.45,2.45,0,0,1,88.27,38a2.9,2.9,0,0,1,1.23.23,2,2,0,0,1,.75.63,2.23,2.23,0,0,1,.38.89,5.1,5.1,0,0,1,.11,1v3.86h-.85V40.84a3.77,3.77,0,0,0-.07-.76,1.85,1.85,0,0,0-.24-.67,1.3,1.3,0,0,0-.49-.47,1.66,1.66,0,0,0-.82-.18,2.59,2.59,0,0,0-.88.16,2,2,0,0,0-.71.5,2.43,2.43,0,0,0-.48.82A3.52,3.52,0,0,0,86,41.41v3.25h-.85Z"/><path class="cls-1" d="M92.42,35.61a.62.62,0,1,1,.18.45.61.61,0,0,1-.18-.45m.21,2.57h.84v6.48h-.84Z"/><path class="cls-1" d="M101.09,43.43a2.83,2.83,0,0,1-1.22,1.07,3.93,3.93,0,0,1-1.59.32,3.4,3.4,0,0,1-1.34-.25,2.92,2.92,0,0,1-1-.71,3.13,3.13,0,0,1-.67-1.08A4,4,0,0,1,95,41.4a3.68,3.68,0,0,1,.24-1.35A3.18,3.18,0,0,1,95.91,39a3.29,3.29,0,0,1,1-.72,3.21,3.21,0,0,1,1.3-.25,3.16,3.16,0,0,1,1.31.25,3.11,3.11,0,0,1,1,.69,3,3,0,0,1,.58,1,3.22,3.22,0,0,1,.19,1.1v.59H95.84a2.87,2.87,0,0,0,.11.68,2.3,2.3,0,0,0,.38.81,2.44,2.44,0,0,0,.75.67,2.34,2.34,0,0,0,1.22.28,2.76,2.76,0,0,0,1.24-.3,2.26,2.26,0,0,0,.93-.85Zm-.65-2.56a2.08,2.08,0,0,0-.17-.82,2.25,2.25,0,0,0-1.2-1.12,2.29,2.29,0,0,0-.87-.17,2.19,2.19,0,0,0-1.14.28,2.59,2.59,0,0,0-.73.65,2.9,2.9,0,0,0-.38.71,2,2,0,0,0-.11.47Z"/><path class="cls-1" d="M102.69,43a1.75,1.75,0,0,0,.78.79,2.35,2.35,0,0,0,1.1.27,1.67,1.67,0,0,0,.53-.08,1.31,1.31,0,0,0,.47-.24,1.23,1.23,0,0,0,.35-.37.91.91,0,0,0,.13-.5.8.8,0,0,0-.29-.67,2,2,0,0,0-.71-.35,6.91,6.91,0,0,0-.92-.22,3.54,3.54,0,0,1-.92-.28,2.08,2.08,0,0,1-.71-.52,1.41,1.41,0,0,1-.29-1,1.7,1.7,0,0,1,.19-.83,1.92,1.92,0,0,1,.52-.58,2.17,2.17,0,0,1,.7-.34,2.78,2.78,0,0,1,.81-.11,3,3,0,0,1,1.38.29,2.08,2.08,0,0,1,.9.93l-.76.45a1.73,1.73,0,0,0-.59-.68,1.65,1.65,0,0,0-.93-.24,2.06,2.06,0,0,0-.48.07,2,2,0,0,0-.44.2,1.12,1.12,0,0,0-.33.32.86.86,0,0,0,.16,1.1,2.13,2.13,0,0,0,.71.33c.28.08.59.14.92.2a4.21,4.21,0,0,1,.93.27,1.89,1.89,0,0,1,.7.55,1.55,1.55,0,0,1,.29,1,1.84,1.84,0,0,1-.7,1.5,2.71,2.71,0,0,1-.76.38,3.17,3.17,0,0,1-.88.12A3.64,3.64,0,0,1,103,44.5a2.33,2.33,0,0,1-1.08-1Z"/><path class="cls-1" d="M111.32,38.93h-1.85v4.22a.92.92,0,0,0,.24.68.89.89,0,0,0,.66.23,2,2,0,0,0,.48-.06,2.36,2.36,0,0,0,.47-.16l.07.76-.54.15a2.36,2.36,0,0,1-.55.07,2,2,0,0,1-.77-.13,1.34,1.34,0,0,1-.52-.36,1.36,1.36,0,0,1-.29-.53,2.22,2.22,0,0,1-.09-.65V38.93h-1.4v-.76h1.4V36.31h.84v1.86h1.85Z"/><polygon class="cls-1" points="115.73 34.72 116.66 34.72 116.66 43.81 121.28 43.81 121.28 44.65 115.73 44.65 115.73 34.72"/><path class="cls-1" d="M121.94,35.61a.61.61,0,0,1,.18-.45.63.63,0,0,1,.45-.18.63.63,0,1,1,0,1.26.63.63,0,0,1-.45-.18.61.61,0,0,1-.18-.45m.21,2.57H123v6.48h-.84Z"/><path class="cls-1" d="M125.36,38.93H124v-.76h1.34V36.06a2.66,2.66,0,0,1,.19-1.05,2.23,2.23,0,0,1,.47-.66,1.66,1.66,0,0,1,.63-.36,2.22,2.22,0,0,1,.65-.11,2.39,2.39,0,0,1,1,.17l-.16.73a1.78,1.78,0,0,0-.76-.14c-.76,0-1.14.58-1.14,1.72v1.81h1.52v.76H126.2v5.72h-.84Z"/><path class="cls-1" d="M134.27,43.43a2.87,2.87,0,0,1-1.21,1.07,4,4,0,0,1-1.6.32,3.4,3.4,0,0,1-1.34-.25,2.92,2.92,0,0,1-1-.71,3.13,3.13,0,0,1-.67-1.08,4,4,0,0,1-.23-1.38,3.68,3.68,0,0,1,.24-1.35,3.18,3.18,0,0,1,.67-1.07,3.29,3.29,0,0,1,1-.72,3.21,3.21,0,0,1,1.3-.25,3.16,3.16,0,0,1,1.31.25,3.11,3.11,0,0,1,1,.69,3,3,0,0,1,.58,1,3.24,3.24,0,0,1,.2,1.1v.59H129a2.87,2.87,0,0,0,.11.68,2.49,2.49,0,0,0,.38.81,2.37,2.37,0,0,0,.76.67,2.28,2.28,0,0,0,1.21.28,2.8,2.8,0,0,0,1.25-.3,2.23,2.23,0,0,0,.92-.85Zm-.65-2.56a1.91,1.91,0,0,0-.17-.82,2.24,2.24,0,0,0-.48-.66,2.29,2.29,0,0,0-.71-.46,2.38,2.38,0,0,0-.88-.17,2.19,2.19,0,0,0-1.14.28,2.59,2.59,0,0,0-.73.65,2.9,2.9,0,0,0-.38.71,2,2,0,0,0-.11.47Z"/><path class="cls-1" d="M135.88,44.06a.68.68,0,1,1,.2.48.65.65,0,0,1-.2-.48"/><polygon class="cls-2" points="157.67 12.85 152.63 4.67 152.58 4.67 152.65 12.85 149.72 12.85 149.72 0.33 153.16 0.33 158.18 8.5 158.24 8.5 158.16 0.33 161.1 0.33 161.1 12.85 157.67 12.85"/><polygon class="cls-2" points="169.32 7.55 169.32 12.85 166.29 12.85 166.29 7.55 161.59 0.34 165.25 0.34 167.92 4.97 170.59 0.34 174.13 0.34 169.32 7.55"/><path class="cls-2" d="M182.31,12.63a6.71,6.71,0,0,1-2.81.56,7.3,7.3,0,0,1-2.68-.48,6.14,6.14,0,0,1-3.54-3.45,6.71,6.71,0,0,1-.52-2.68,7,7,0,0,1,.52-2.73,6,6,0,0,1,1.45-2.07A6.3,6.3,0,0,1,176.88.46,7.57,7.57,0,0,1,179.55,0a7.42,7.42,0,0,1,2.61.47,5.08,5.08,0,0,1,2.08,1.37l-2.06,2.05A2.52,2.52,0,0,0,181.07,3a3.76,3.76,0,0,0-2.87,0,3.56,3.56,0,0,0-1.14.8,3.6,3.6,0,0,0-.74,1.22,4.17,4.17,0,0,0-.27,1.53,4.31,4.31,0,0,0,.27,1.55,3.59,3.59,0,0,0,.73,1.21,3.3,3.3,0,0,0,1.12.79,3.54,3.54,0,0,0,1.43.28,3.41,3.41,0,0,0,1.58-.35,3,3,0,0,0,1.07-.92l2.11,2a6.11,6.11,0,0,1-2.05,1.51"/><polygon class="cls-1" points="157.62 28.76 157.62 23.52 152.74 23.52 152.74 28.76 149.72 28.76 149.72 16.24 152.74 16.24 152.74 20.98 157.62 20.98 157.62 16.24 160.64 16.24 160.64 28.76 157.62 28.76"/><polygon class="cls-1" points="162.47 28.76 162.47 16.24 170.88 16.24 170.88 18.79 165.38 18.79 165.38 21.16 170.58 21.16 170.58 23.58 165.38 23.58 165.38 26.18 171.2 26.18 171.2 28.76 162.47 28.76"/><path class="cls-1" d="M181.89,28.76l-1-2.46h-4.84l-.92,2.46h-3.29l5.25-12.52h2.94l5.19,12.52Zm-3.35-9.18-1.6,4.3h3.15Z"/><polygon class="cls-1" points="185.89 28.76 185.89 16.24 188.93 16.24 188.93 26.12 193.77 26.12 193.77 28.76 185.89 28.76"/><polygon class="cls-1" points="199.01 18.82 199.01 28.76 195.98 28.76 195.98 18.82 192.45 18.82 192.45 16.24 202.54 16.24 202.54 18.82 199.01 18.82"/><polygon class="cls-1" points="211.74 28.76 211.74 23.52 206.87 23.52 206.87 28.76 203.84 28.76 203.84 16.24 206.87 16.24 206.87 20.98 211.74 20.98 211.74 16.24 214.77 16.24 214.77 28.76 211.74 28.76"/><polygon class="cls-1" points="157.62 44.66 157.62 39.43 152.74 39.43 152.74 44.66 149.72 44.66 149.72 32.15 152.74 32.15 152.74 36.89 157.62 36.89 157.62 32.15 160.64 32.15 160.64 44.66 157.62 44.66"/><path class="cls-1" d="M175.45,38.35a7,7,0,0,1-.51,2.72,6.07,6.07,0,0,1-1.43,2.1,6.14,6.14,0,0,1-2.16,1.35,7.95,7.95,0,0,1-5.44,0,6.28,6.28,0,0,1-2.15-1.35,6.21,6.21,0,0,1-1.43-2.1,7,7,0,0,1-.51-2.72,6.93,6.93,0,0,1,.51-2.71,6,6,0,0,1,1.43-2.06,6.5,6.5,0,0,1,2.15-1.31,8.27,8.27,0,0,1,5.44,0,6.35,6.35,0,0,1,2.16,1.31,5.91,5.91,0,0,1,1.43,2.06,6.93,6.93,0,0,1,.51,2.71m-3.23,0a4.17,4.17,0,0,0-.27-1.51,3.7,3.7,0,0,0-.73-1.22,3.38,3.38,0,0,0-1.13-.79,3.53,3.53,0,0,0-1.46-.29,3.42,3.42,0,0,0-1.45.29,3.49,3.49,0,0,0-1.13.79,3.41,3.41,0,0,0-.74,1.22,4.39,4.39,0,0,0-.25,1.51,4.66,4.66,0,0,0,.26,1.57,3.61,3.61,0,0,0,.74,1.23,3.23,3.23,0,0,0,1.12.8,3.77,3.77,0,0,0,2.9,0,3.47,3.47,0,0,0,1.13-.8,3.61,3.61,0,0,0,.74-1.23,4.42,4.42,0,0,0,.27-1.57"/><path class="cls-1" d="M183.24,35.4a2.57,2.57,0,0,0-1-.78,2.78,2.78,0,0,0-1.21-.29,3.2,3.2,0,0,0-.61.05,1.5,1.5,0,0,0-.56.2,1.38,1.38,0,0,0-.41.39,1,1,0,0,0-.17.61,1,1,0,0,0,.13.53,1.16,1.16,0,0,0,.39.37,3.16,3.16,0,0,0,.61.29l.8.28,1.32.47a4.79,4.79,0,0,1,1.26.68,3.62,3.62,0,0,1,.93,1,3,3,0,0,1,.37,1.56,4.19,4.19,0,0,1-.39,1.87,4,4,0,0,1-1.07,1.3,4.82,4.82,0,0,1-1.54.76,6.66,6.66,0,0,1-1.79.24,7.16,7.16,0,0,1-2.59-.47,5.4,5.4,0,0,1-2.09-1.33l2-2a3.74,3.74,0,0,0,1.21.94,3.33,3.33,0,0,0,1.49.38,2.84,2.84,0,0,0,.66-.07,1.52,1.52,0,0,0,.55-.23,1.18,1.18,0,0,0,.38-.42,1.29,1.29,0,0,0,.15-.64,1,1,0,0,0-.18-.6,1.69,1.69,0,0,0-.5-.45,3.71,3.71,0,0,0-.82-.37c-.32-.12-.69-.23-1.1-.37a9.94,9.94,0,0,1-1.18-.46,3.71,3.71,0,0,1-1-.68,3.23,3.23,0,0,1-.73-1,3.49,3.49,0,0,1-.27-1.44,3.59,3.59,0,0,1,.42-1.79,3.85,3.85,0,0,1,1.12-1.22,4.76,4.76,0,0,1,1.55-.7,7.42,7.42,0,0,1,1.75-.22,6.51,6.51,0,0,1,2.17.39,5.54,5.54,0,0,1,1.93,1.15Z"/><path class="cls-1" d="M196.11,36a3.86,3.86,0,0,1-.4,1.85,3.38,3.38,0,0,1-1.1,1.21,4.74,4.74,0,0,1-1.59.67,8.25,8.25,0,0,1-1.87.21h-1.51v4.72h-3V32.15h4.6a8.88,8.88,0,0,1,1.91.2,4.59,4.59,0,0,1,1.56.66,3.13,3.13,0,0,1,1,1.18,3.82,3.82,0,0,1,.38,1.81m-3,0a1.33,1.33,0,0,0-.18-.72,1.17,1.17,0,0,0-.47-.44,2.07,2.07,0,0,0-.69-.22,6.53,6.53,0,0,0-.78,0h-1.33v2.95h1.28a4.28,4.28,0,0,0,.81-.07,2,2,0,0,0,.7-.25,1.27,1.27,0,0,0,.48-.47,1.34,1.34,0,0,0,.18-.73"/><rect class="cls-1" x="197.3" y="32.15" width="3.04" height="12.51"/><polygon class="cls-1" points="208.06 34.73 208.06 44.66 205.04 44.66 205.04 34.73 201.5 34.73 201.5 32.15 211.6 32.15 211.6 34.73 208.06 34.73"/><path class="cls-1" d="M219.92,44.66l-1-2.45h-4.84l-.92,2.45H209.9l5.25-12.51h2.93l5.2,12.51Zm-3.36-9.17L215,39.79h3.15Z"/><polygon class="cls-1" points="224.12 44.66 224.12 32.15 227.16 32.15 227.16 42.03 232 42.03 232 44.66 224.12 44.66"/><path class="cls-1" d="M239.94,35.4a2.67,2.67,0,0,0-1-.78,2.78,2.78,0,0,0-1.21-.29,3.2,3.2,0,0,0-.61.05,1.39,1.39,0,0,0-.55.2,1.31,1.31,0,0,0-.42.39,1,1,0,0,0-.17.61,1,1,0,0,0,.14.53,1,1,0,0,0,.38.37,3.85,3.85,0,0,0,.61.29l.8.28,1.32.47a4.79,4.79,0,0,1,1.26.68,3.52,3.52,0,0,1,.94,1,3.08,3.08,0,0,1,.37,1.56,4.06,4.06,0,0,1-.4,1.87,3.76,3.76,0,0,1-1.07,1.3,4.72,4.72,0,0,1-1.54.76A6.64,6.64,0,0,1,237,45a7.21,7.21,0,0,1-2.6-.47,5.48,5.48,0,0,1-2.09-1.33l2-2a3.74,3.74,0,0,0,1.21.94,3.34,3.34,0,0,0,1.5.38,2.81,2.81,0,0,0,.65-.07,1.65,1.65,0,0,0,.56-.23,1.28,1.28,0,0,0,.38-.42,1.41,1.41,0,0,0,.14-.64,1,1,0,0,0-.18-.6,1.57,1.57,0,0,0-.5-.45,3.84,3.84,0,0,0-.81-.37c-.33-.12-.7-.23-1.11-.37a9.79,9.79,0,0,1-1.17-.46,3.62,3.62,0,0,1-1-.68,3.05,3.05,0,0,1-.72-1,3.33,3.33,0,0,1-.28-1.44,3.49,3.49,0,0,1,.43-1.79,3.71,3.71,0,0,1,1.11-1.22,4.81,4.81,0,0,1,1.56-.7,7.36,7.36,0,0,1,1.75-.22,6.5,6.5,0,0,1,2.16.39,5.58,5.58,0,0,1,1.94,1.15Z"/><polygon class="cls-3" points="230.37 20.98 225.63 20.98 225.63 16.24 222.59 16.24 222.59 20.98 217.86 20.98 217.86 24.02 222.59 24.02 222.59 28.76 225.63 28.76 225.63 24.02 230.37 24.02 230.37 20.98"/></g></g></svg>