<svg xmlns="http://www.w3.org/2000/svg" viewBox="0 0 19.7 19.7"><defs><style>.cls-1{fill:none;stroke:#fff;stroke-linecap:round;stroke-linejoin:round;stroke-width:0.87px;}</style></defs><g id="Layer_2" data-name="Layer 2"><g id="Layer_1_copy" data-name="Layer 1 copy"><g id="add"><path class="cls-1" d="M4.69,10.76s.3,1.52,0,1.82C4.08,13.19.43,13.8.43,13.8"/><path class="cls-1" d="M8.94,10.76s-.31,1.52,0,1.82a2.61,2.61,0,0,0,.91.45"/><path class="cls-1" d="M5.29,11.06c-1.58-.53-2.12-3-2.12-3C3,7.31,2.81,6.13,2.72,5.4a7.12,7.12,0,0,1,0-1.91A3.87,3.87,0,0,1,6.81.43,3.87,3.87,0,0,1,10.9,3.49a6.73,6.73,0,0,1,0,1.91A26.23,26.23,0,0,1,10.46,8s-.54,2.5-2.13,3"/><circle class="cls-1" cx="15.01" cy="15.01" r="4.25"/><line class="cls-1" x1="15.01" y1="12.89" x2="15.01" y2="17.14"/><line class="cls-1" x1="12.89" y1="15.01" x2="17.14" y2="15.01"/></g></g></g></svg>