<svg xmlns="http://www.w3.org/2000/svg" viewBox="0 0 15.57 15.88"><defs><style>.cls-1{fill:none;stroke:#fff;stroke-linejoin:round;stroke-width:0.75px;}</style></defs><g id="Layer_2" data-name="Layer 2"><g id="Layer_1_copy" data-name="Layer 1 copy"><g id="delete"><path class="cls-1" d="M3.48,8.67s.24,1.22,0,1.47c-.49.49-3.42,1-3.42,1"/><path class="cls-1" d="M6.9,8.67s-.25,1.22,0,1.47a2.05,2.05,0,0,0,.73.35"/><path class="cls-1" d="M4,8.92C2.69,8.49,2.26,6.48,2.26,6.48,2.12,5.9,2,5,1.9,4.36a5.55,5.55,0,0,1,0-1.53A3.1,3.1,0,0,1,5.19.38,3.09,3.09,0,0,1,8.47,2.83a5.19,5.19,0,0,1,0,1.53C8.4,5,8.25,5.9,8.12,6.48c0,0-.44,2-1.71,2.44"/><circle class="cls-1" cx="11.78" cy="12.09" r="3.42"/><line class="cls-1" x1="10.57" y1="10.88" x2="12.99" y2="13.3"/><line class="cls-1" x1="10.57" y1="13.3" x2="12.99" y2="10.88"/></g></g></g></svg>