<svg xmlns="http://www.w3.org/2000/svg" viewBox="0 0 15.36 15.77"><defs><style>.cls-1{fill:none;stroke:#fff;stroke-linejoin:round;stroke-width:0.75px;}</style></defs><g id="Layer_2" data-name="Layer 2"><g id="Layer_1_copy" data-name="Layer 1 copy"><g id="edit"><path class="cls-1" d="M11.69,11.46,10,9.73,12.9,6.8a1.22,1.22,0,0,1,1.73,0h0a1.24,1.24,0,0,1,0,1.73Z"/><polyline class="cls-1" points="11.52 11.29 8.24 14.57 6.52 15.26 6.17 14.91 6.86 13.19 9.45 10.6"/><line class="cls-1" x1="7.63" y1="14.04" x2="8.12" y2="14.53"/><line class="cls-1" x1="6.34" y1="15.08" x2="5.92" y2="15.51"/><path class="cls-1" d="M3.48,8.67s.24,1.22,0,1.47c-.49.49-3.42,1-3.42,1"/><path class="cls-1" d="M6.9,8.67s-.25,1.22,0,1.47a3.24,3.24,0,0,0,1.16.49"/><path class="cls-1" d="M4.21,8.92C2.75,8.67,2.26,6.48,2.26,6.48,2.12,5.9,2,5,1.9,4.36a5.55,5.55,0,0,1,0-1.53A3.1,3.1,0,0,1,5.19.38,3.09,3.09,0,0,1,8.47,2.83a5.19,5.19,0,0,1,0,1.53C8.4,5,8.25,5.9,8.12,6.48c0,0-.49,2.19-2,2.44"/></g></g></g></svg>